<svg id="hand" xmlns="http://www.w3.org/2000/svg" xmlns:xlink="http://www.w3.org/1999/xlink" viewBox="0 0 179.38 281.62" >

  <a xlink:href="../uxui.html" target="_top">
  <defs>
    <style>
      .cls-1 {
        fill: none;
        stroke: #000;
        stroke-miterlimit: 10;
        stroke-width: 4px;
      }

      #hand #vibrations{
      opacity:0;
      }

      #hand:hover #vibrations{
      opacity:1;
      -webkit-transition:all .3s ease-in-out;
transition:all .3s ease-in-out;
      }

      #hand:hover #smaller{
      -webkit-animation: smallex 3s infinite;
      animation: smallex 3s infinite;
      transform-origin: center;
      animation-delay: .01s;
      }

      @-webkit-keyframes smallex{
      0%{
      opacity:0;
      transform:scale(0);
      }
      8%{
      opacity:0;
      transform:scale(0);
      }
      14%{
      opacity:.5;
      }
      18%{
      opacity:1;
      }
      25%{
      opacity:1;
      }
      50%{
      transform:scale(1);
      }
      55%{
      opacity:0;
      }
      60%{
      opacity:0;
      transform:scale(0);
      }
      66%{
      opacity:.5;
      }
      70%{
      opacity:1;
      }
      90%{
      transform:scale(1)
      }
      100%{
      transform:scale(0);
      opacity:0;
      }
      }

       #hand:hover #bigger{
      -webkit-animation: bigex 3s infinite;
      animation: bigex 3s infinite;
      transform-origin: center;
      }

      @-webkit-keyframes bigex{
      0%{
      opacity:0;
      transform:scale(0);
      }
      5%{
      opacity:0;
      transform:scale(0);
      }
      9%{
      opacity:.5;
      }
      13%{
      opacity:1;
      }
      22%{
      opacity:1;
      }
      45%{
      transform:scale(1);
      }
      50%{
      opacity:0;
      }
      55%{
      opacity:0;
      transform:scale(0);
      }
      59%{
      opacity:.5;
      }
      63%{
      opacity:1;
      }
      72%{
      opacity:1;
      }
      90%{
      transform:scale(1);
      }
      100%{
      transform:scale(0);
      opacity:0;
      }
      }
    </style>
  </defs>
  <g id="vibrations">
  <circle id="smaller" cx="63.64" cy="57.95" r="40.85"/>
  <circle id="bigger" class="cls-1" cx="64.02" cy="57.82" r="55.82"/>
</g>
  <g id="hand">
    <path d="M178.4,169.86c-3.77-22.45-19.6-26-27-26.46a7.41,7.41,0,0,1-5.8-3.28c-5.39-8.23-12.61-10.4-18.74-10.4a31,31,0,0,0-10.45,1.93,2.41,2.41,0,0,1-.84.15,2.52,2.52,0,0,1-2.16-1.26c-5.47-9.39-13.25-11.81-19.82-11.81A31.71,31.71,0,0,0,84,120.29a4.46,4.46,0,0,1-1,.11A2.63,2.63,0,0,1,80.36,118V69.75c0-11-8.22-16.55-16.5-16.55s-16.5,5.52-16.5,16.55v84.91c0,5,1.19,8.07-2.92,8.07-2.5,0-3.9-1.14-5.55-3.68L28,138.78c-3.51-5.79-8.58-8.19-13.62-8.19-11.41,0-19,17.42-11.08,30.51,0,0,37.06,58.62,43,70.22,9.32,18.14,12.91,52.31,12.91,52.31A2.48,2.48,0,0,0,61.29,285H149a2.46,2.46,0,0,0,2.37-2.33l2.2-35.82a2.47,2.47,0,0,1,.39-1.19C175.78,212.68,182,191.41,178.4,169.86Z" transform="translate(0.02 -3.38)"/>
  </g>
</a>
</svg>
