<svg id="ic-gallery" xmlns="http://www.w3.org/2000/svg" viewBox="-255 252 48 48">
  <style>
    .st0{fill:#222222;}
  </style>
  <path id="p1" class="st0" d="M-208.2 258c-.8-.8-1.7-1.2-2.8-1.2h-40c-1.1 0-2 .4-2.8 1.2-.8.8-1.2 1.7-1.2 2.8v30.3c0 1.1.4 2 1.2 2.8.8.8 1.7 1.2 2.8 1.2h39.9c1.1 0 2-.4 2.8-1.2.8-.8 1.2-1.7 1.2-2.8v-30.3c0-1.1-.4-2-1.1-2.8zm-2.1 33.2c0 .2-.1.4-.2.6-.2.2-.3.2-.6.2H-251c-.2 0-.4-.1-.6-.2-.2-.2-.2-.3-.2-.6v-30.3c0-.2.1-.4.2-.6.2-.2.3-.2.6-.2h39.9c.2 0 .4.1.6.2.2.2.2.3.2.6v30.3z"/>
  <path id="p2" class="st0" d="M-243.8 272.8c1.3 0 2.5-.5 3.4-1.4.9-.9 1.4-2.1 1.4-3.4 0-1.3-.5-2.5-1.4-3.4-.9-.9-2.1-1.4-3.4-1.4-1.3 0-2.5.5-3.4 1.4-.9.9-1.4 2.1-1.4 3.4 0 1.3.5 2.5 1.4 3.4.9.9 2.1 1.4 3.4 1.4z"/>
  <path id="p3" class="st0" d="M-236.6 280l-4-4-8 8v4.8h35.1v-11.2l-10.3-10.4z"/>
</svg>
