<?xml version="1.0" encoding="UTF-8" standalone="no"?>
<svg width="48px" height="39px" viewBox="0 0 48 39" version="1.1" xmlns="http://www.w3.org/2000/svg" xmlns:xlink="http://www.w3.org/1999/xlink">
    <!-- Generator: Sketch 39.1 (31720) - http://www.bohemiancoding.com/sketch -->
    <title>picture copy</title>
    <desc>Created with Sketch.</desc>
    <defs></defs>
    <g id="Page-1" stroke="none" stroke-width="1" fill="none" fill-rule="evenodd">
        <g id="Artboard-3" transform="translate(-1515.000000, -1182.000000)">
            <g id="picture-copy" transform="translate(1515.000000, 1182.000000)">
                <g id="Capa_1">
                    <rect id="Rectangle-13" fill="#FFFFFF" x="2.97068404" y="3.12703583" width="42.6840391" height="32.3648208" rx="8"></rect>
                    <g id="Group" fill="#222222">
                        <path d="M46.7540984,1.24461285 C45.9720219,0.462686882 45.0322186,0.0717676044 43.9334645,0.0717676044 L3.99396721,0.0717676044 C2.89565027,0.0717676044 1.95567213,0.462599467 1.17307104,1.24461285 C0.390907104,2.02671365 0,2.96651087 0,4.06470382 L0,34.4127848 C0,35.51124 0.390907104,36.4511247 1.17307104,37.2331381 C1.95567213,38.0151514 2.89565027,38.4061581 3.99396721,38.4061581 L43.9340765,38.4061581 C45.0322186,38.4061581 45.9722842,38.0151514 46.7544481,37.2331381 C47.5365246,36.4512121 47.9279563,35.5113275 47.9279563,34.4127848 L47.9279563,4.06470382 C47.9279563,2.96651087 47.5365246,2.02671365 46.7540984,1.24461285 L46.7540984,1.24461285 Z M44.7320656,34.4127848 C44.7320656,34.6293989 44.6534645,34.8160296 44.495388,34.9746002 C44.3371366,35.1319469 44.1498579,35.2108826 43.9334645,35.2108826 L3.99396721,35.2108826 C3.77774863,35.2108826 3.59046995,35.1319469 3.43239344,34.9746002 C3.27440437,34.816117 3.19527869,34.6293989 3.19527869,34.4127848 L3.19527869,4.06435416 C3.19527869,3.84808978 3.27414208,3.66128422 3.43239344,3.50288848 C3.59055738,3.34527948 3.77783607,3.26616903 3.99396721,3.26616903 L43.9340765,3.26616903 C44.1501202,3.26616903 44.3373989,3.34527948 44.495388,3.50288848 C44.6528525,3.66128422 44.7320656,3.84808978 44.7320656,4.06435416 L44.7320656,34.4127848 L44.7320656,34.4127848 L44.7320656,34.4127848 Z" id="Shape"></path>
                        <path d="M11.183388,16.0442118 C12.5148852,16.0442118 13.6464262,15.5785528 14.5784481,14.6467103 C15.5102077,13.7148679 15.9762186,12.5836321 15.9762186,11.2527408 C15.9762186,9.92141238 15.5099454,8.79017661 14.5784481,7.85824673 C13.6464262,6.92675392 12.5147978,6.46083269 11.183388,6.46083269 C9.85206557,6.46083269 8.72061202,6.92675392 7.78859016,7.85824673 C6.85691803,8.79008919 6.3909071,9.92132496 6.3909071,11.2527408 C6.3909071,12.5836321 6.85665574,13.7151301 7.78859016,14.6467103 C8.72061202,15.5782906 9.85206557,16.0442118 11.183388,16.0442118 L11.183388,16.0442118 Z" id="Shape"></path>
                        <polygon id="Shape" points="18.3723716 23.2318117 14.3783169 19.2389629 6.39055738 27.2250975 6.39055738 32.0171805 41.5374863 32.0171805 41.5374863 20.8362073 31.153224 10.4536815"></polygon>
                    </g>
                </g>
            </g>
        </g>
    </g>
</svg>