<svg id="ic-home" xmlns="http://www.w3.org/2000/svg" viewBox="-24 488 48 48">
  <style>
    .st0{fill:#222222;}
  </style>
  <path class="st0" d="M0 500.7l-17.1 14V529.1c0 .5.2 1 .6 1.3.4.4.8.6 1.3.6h11.4v-11.4h7.6V531h11.4c.5 0 1-.2 1.3-.6.4-.4.6-.8.6-1.3v-14.2-.2L0 500.7z"/>
  <path class="st0" d="M23.7 511.5l-6.5-5.4V494c0-.3-.1-.5-.3-.7-.2-.2-.4-.3-.7-.3h-5.7c-.3 0-.5.1-.7.3-.2.2-.3.4-.3.7v5.8l-7.3-6c-.6-.5-1.3-.8-2.2-.8-.9 0-1.6.3-2.3.8l-21.4 17.7c-.2.2-.3.4-.3.6 0 .3 0 .5.2.7l1.8 2.2c.2.2.4.3.6.3.2 0 .5 0 .7-.2l20.7-17 20.6 17.1c.2.1.4.2.6.2h.1c.3 0 .5-.1.6-.3l1.8-2.2c.2-.2.2-.4.2-.7.1-.3 0-.5-.2-.7z"/>
</svg>
