<svg id="ic-resume" xmlns="http://www.w3.org/2000/svg" viewBox="-171.2 376 34.5 48">
  <style>
    .st0{fill:#222222;} .st1{fill:#333333;}
  </style>
  <path class="st0" d="M-168.7 422.7c0-.6-.5-1.2-1.2-1.2h31.8c-.6 0-1.2.5-1.2 1.2v-39.5c0 .6.5 1.2 1.2 1.2h-31.8c.6 0 1.2-.5 1.2-1.2v39.5zm-1.2-40.8h31.8c.7 0 1.3.6 1.3 1.3v39.5c0 .7-.6 1.3-1.3 1.3h-31.8c-.7 0-1.3-.6-1.3-1.3v-39.5c0-.7.6-1.3 1.3-1.3zM-162.2 381.1s-1.4-5.1 4.2-5.1h7.2c3 0 5.6.4 4.9 5"/>
  <path class="st1" d="M-148.2 392.6c.1-.1.1-.2.1-.3 0-.2 0-.3-.1-.5v-.1c0-.1 0-.1.1-.1s.2.1.3.1c.2.1.2.3.2.5s-.1.3-.2.5v.1h.4c.3 0 .6.1.8.2.2.1.3.2.5.3.1 0 .1.1.2.1.2.1.4.1.5.1h.2c.2 0 .3.2.3.4 0 .1-.1.1-.2.1h-.3-.1c-.1 0-.1 0-.1.1l.1.1c.1.1.1.2.2.4.1.1.1.1.2 0 .1 0 .1-.1.2-.1h.1c.1 0 .1 0 .1.1 0 .2-.1.4-.2.5-.1.1-.3.1-.4.1-.1 0-.3 0-.4-.1.1.2.3.4.4.6.1.1.1.2.1.3v.7l.3.6v.1H-145.2c-.1-.1-.2-.1-.2-.2-.2-.1-.3-.2-.5-.3v.1c.3.2.5.5.7.8.1.2.2.4.2.6v.3c0 .2-.1.3-.1.5v.7h-.1v-.1c0-.1 0-.2-.1-.3-.1-.2-.2-.3-.4-.4h-.1l-.1.1c-.1.2-.2.3-.3.5 0 .1-.1.2-.1.3 0 .2 0 .2.2.2h.2c-.1.1-.1.3-.3.3-.1 0-.2.1-.1.3.1.1.1.2.2.2.1.1.3.2.4.4.1.1.2.3.3.4.1.2.2.4.3.7 0 .1 0 .1.1.2.1.2 0 .4-.2.5-.2.1-.3.1-.5.2s-.3.2-.3.4c0 .1 0 .1.1.2 0 0 0 .1.1.1.1.1.2.2.1.4 0 .1 0 .2-.1.2s-.1.1-.2.1c0 0 .1 0 .1.1.2.1.2.3.2.5 0 .1-.1.2-.2.3 0 0-.1 0-.1.1-.1.1-.1.2-.1.3.1.2.1.4.1.6v.4c-.1.3-.3.5-.6.6h-2.5c-.2 0-.4 0-.6.1-.1 0-.2.1-.3.1-.3.2-.6.5-.8.8-.1.1-.1.2-.1.3-.1.3-.1.7-.2 1.1 0 .4-.1.8-.1 1.1 0 .3 0 .5-.1.8 0 .2 0 .4-.1.6v.5c0 .1 0 .1.1.1.2.1.3.2.5.3.3.1.5.3.8.4.1 0 .1.1.2.1.2.3.4.7.7 1 .1.2.2.3.3.5v.1h-.9c-.2 0-.5 0-.7-.1h-.4c-.2 0-.4 0-.7-.1h-.4c-.2 0-.5 0-.7-.1h-.5c-.2 0-.5 0-.7-.1h-.4c-.2 0-.5 0-.7-.1h-.4c-.2 0-.5 0-.7-.1h-.4c-.2 0-.5 0-.7-.1h-.5c-.2 0-.4-.1-.7-.1-.2 0-.3-.1-.4-.1-.1 0-.2-.1-.2-.1-.1 0-.1 0 0-.1.1-.2.2-.4.3-.5.2-.4.4-.7.6-1.1.2-.4.4-.9.6-1.3.1-.3.2-.5.3-.8 0-.1.1-.1.2-.1s.1 0 .1-.1c.1-.2.1-.5.1-.8 0-.2 0-.4.1-.6v-.1c-.2-.1-.3-.3-.4-.6v-.5-.1c-.2.1-.3.1-.5.1h-.2c-.2 0-.2-.2-.2-.3 0-.1.1-.2.2-.3.1-.2.3-.3.4-.4l.2-.2s-.1 0-.1.1c-.1.1-.3.1-.4.2l-.1.1v.1c-.3 0-.5 0-.7-.2-.2-.2-.2-.3-.3-.6 0-.2 0-.4.1-.6 0 0 0-.1 0 0h-.2c-.2 0-.5 0-.7-.1-.1 0-.1 0-.1-.1-.1-.1-.1-.1 0-.2 0-.1.1-.1.1-.2.2-.2.3-.4.5-.6 0 0-.1 0-.1.1-.2.1-.3.3-.4.4-.1.1-.1.1-.2 0s-.1-.2-.2-.3c-.1-.2-.1-.3-.1-.5v-.6.1c-.1.4-.5.6-.9.6h-.3s-.1 0-.1-.1c-.1-.1-.1-.1 0-.2.1 0 .1-.1.1-.2.1-.2.1-.4.1-.6v-.6c0-.1-.1-.2-.1-.2h-.1c-.1.1-.1.2-.2.4v.2c0 .1-.1.2-.2.1-.1 0-.2-.1-.2-.2-.1-.1-.1-.3-.1-.4 0-.1 0-.2.1-.3 0-.1 0-.2-.1-.2h-.2c-.1 0-.1-.1-.1-.2.1-.1.2-.3.2-.5v-.6c0-.1-.1-.2-.2-.3-.2-.2-.4-.3-.5-.6-.2-.3-.3-.5-.3-.9 0-.2 0-.5.1-.7 0 0 0-.1.1-.1s.1 0 .1.1c.1.2.3.3.5.5.2.1.3.1.5.1h.1v-.1c-.3-.2-.6-.5-.7-.8-.1-.2-.2-.5-.2-.8 0-.1 0-.2.1-.3.1-.1.2-.1.2 0 .1.2.2.3.3.4.1.1.3.2.4.2h.1v-.1c-.2-.4-.3-.7-.3-1.1v-.5c0-.1.1-.2.2-.3.1-.1.2-.1.3 0 .1.2.2.2.4.3h.3c.2 0 .3-.1.4-.1.1 0 .1-.1 0-.1-.1-.1-.2-.1-.3-.2-.2-.1-.3-.1-.5 0h-.1v-.2c.1-.1.2-.2.3-.2.3-.1.5-.2.8-.2h.1c.2 0 .3-.2.3-.3v-.2-.1c0-.1.1-.1.2-.1s.1.1.2.1.2 0 .2-.1v-.2c0-.2 0-.4.1-.5 0-.1.1-.1.2-.2.1 0 .1 0 .2.1v.1c0 .2.2.3.4.4.1 0 .2 0 .3-.1.1-.1.1-.2.2-.3.2-.3.4-.5.6-.7.2-.1.4-.2.7-.2h.3c.1 0 .2 0 .2-.1.1-.1.1-.2 0-.4v-.1c0-.1 0-.1.1-.1h.1c.4.1.7.2 1.1.4.1 0 .1.1.2.1.2.1.3.1.5 0l.6-.3c.3-.1.5-.3.8-.4.2-.1.3-.1.5-.1.1 0 .1 0 .2.1 0 .1 0 .1-.1.1-.2.2-.3.5-.3.7V392.8h.1l.2-.2c.2-.2.4-.4.6-.5h.2V392.4s0 .1.1.1h.1c.1-.1.2-.2.3-.2.1-.1.3-.2.5-.3.3-.1.5 0 .8.2.1.1.2.3.3.4h.1v-.2-.2-.1h.1c.1.1.2.2.2.3.1.2.2.5.2.7 0-1 0-.8.1-.5-.1 0-.1 0 0 0z"/>
</svg>
