<?xml version="1.0" encoding="UTF-8" standalone="no"?>
<svg width="206px" height="287px" viewBox="0 0 206 287" version="1.1" xmlns="http://www.w3.org/2000/svg" xmlns:xlink="http://www.w3.org/1999/xlink">
    <!-- Generator: Sketch 39.1 (31720) - http://www.bohemiancoding.com/sketch -->
    <title>Resume</title>
    <desc>Created with Sketch.</desc>
    <defs></defs>
    <g id="Page-1" stroke="none" stroke-width="1" fill="none" fill-rule="evenodd">
        <g id="Artboard-3" transform="translate(-1021.000000, -689.000000)">
            <g id="Resume" transform="translate(1021.000000, 689.000000)">
                <path d="M15,279.006786 C15,275.132829 11.8680237,272 7.9964488,272 L198.003551,272 C194.138638,272 191,275.13862 191,279.006786 L191,42.993214 C191,46.8671706 194.131976,50 198.003551,50 L7.9964488,50 C11.861362,50 15,46.8613801 15,42.993214 L15,279.006786 Z M7.9964488,35 L198.003551,35 C202.419868,35 206,38.5865202 206,42.993214 L206,279.006786 C206,283.421316 202.424484,287 198.003551,287 L7.9964488,287 C3.58013207,287 0,283.41348 0,279.006786 L0,42.993214 C0,38.5786838 3.57551575,35 7.9964488,35 Z" id="Rectangle-14" fill="#222222"></path>
                <path d="M137.402106,99.2759638 C137.797566,98.6234691 137.985849,97.9607059 138.06818,97.2704857 C138.187628,96.2697557 138.004294,95.3147873 137.553047,94.4113846 C137.47319,94.2513303 137.381411,94.0964103 137.312352,93.9321146 C137.119346,93.4740513 137.312577,93.1771584 137.819387,93.2213575 C138.567117,93.2867632 139.252311,93.537448 139.836053,94.0307813 C140.862495,94.8984676 141.203967,96.0099186 141.016585,97.3012911 C140.869243,98.3178703 140.567362,99.2846697 139.997791,100.156597 C139.895215,100.31375 139.722229,100.483179 139.872945,100.687433 C140.027935,100.89749 140.258282,100.818021 140.470859,100.785653 C140.967546,100.710202 141.463558,100.635644 141.968119,100.620018 C143.716196,100.565997 145.306135,101.023167 146.741984,102.021888 C147.640654,102.646926 148.555971,103.248078 149.46364,103.860392 C149.806012,104.091433 150.156933,104.307964 150.525849,104.495922 C151.551391,105.018944 152.627321,105.199982 153.762188,104.967155 C154.139202,104.889919 154.507444,104.897508 154.884008,104.976977 C156.067239,105.226323 156.794724,106.357195 156.510389,107.523336 C156.382843,108.046136 156.147096,108.251729 155.608569,108.266015 C154.979162,108.282757 154.349305,108.279855 153.719448,108.28432 C153.593476,108.285213 153.46638,108.269363 153.341984,108.282311 C152.962945,108.321599 152.864417,108.481876 153.032454,108.819173 C153.175521,109.106468 153.350307,109.378582 153.51092,109.657394 C153.921677,110.369937 154.333558,111.082033 154.74319,111.795246 C155.046646,112.323849 155.190838,112.369834 155.720368,112.049056 C156.072863,111.83565 156.407362,111.593002 156.750859,111.36464 C156.900225,111.265303 157.047342,111.159493 157.228425,111.123107 C157.58137,111.052344 157.7809,111.186281 157.849509,111.536302 C158.04274,112.523638 157.374642,113.835994 156.451902,114.257894 C155.650859,114.624211 154.83272,114.940971 153.970266,115.146787 C153.11411,115.351264 152.372229,115.148127 151.696933,114.621309 C151.64092,114.577557 151.582658,114.536929 151.475133,114.524205 C151.538119,114.609701 151.596155,114.699216 151.66454,114.780024 C152.543865,115.822275 153.322413,116.937297 154.072168,118.072633 C154.442434,118.633382 154.544785,119.247928 154.477076,119.912477 C154.343456,121.226172 154.219509,122.537635 154.585051,123.845303 C154.949018,125.147837 155.644785,126.258172 156.483845,127.296851 C156.540082,127.366498 156.607791,127.428332 156.655706,127.50289 C156.730389,127.618745 156.890102,127.717858 156.829366,127.872109 C156.754908,128.060959 156.556053,128.077701 156.377444,128.10181 C156.003579,128.152483 155.656933,128.062968 155.348528,127.861394 C154.868037,127.547535 154.398344,127.216935 153.927076,126.889683 C152.983865,126.23451 152.025583,125.603445 150.970798,125.006534 C151.007914,125.189134 151.125337,125.237128 151.211493,125.307891 C152.788384,126.600603 154.199039,128.041092 155.24955,129.799457 C155.936769,130.949303 156.388241,132.18219 156.56955,133.510172 C156.660879,134.180078 156.543681,134.823198 156.354274,135.463861 C156.065665,136.440036 155.813947,137.422462 155.689775,138.438594 C155.550757,139.576386 155.646585,140.680694 155.986033,141.770268 C156.04182,141.949297 156.185562,142.142836 155.93272,142.286148 C155.741288,142.394637 155.484847,142.319855 155.312761,142.106896 C155.151247,141.906884 155.09411,141.659324 155.020552,141.420694 C154.847117,140.857937 154.732618,140.280223 154.528364,139.72394 C154.093313,138.538824 153.298119,137.783644 152.042679,137.504386 C151.77364,137.444561 151.551391,137.46108 151.324192,137.596356 C151.089346,137.736097 150.899264,137.920929 150.728078,138.132326 C149.994519,139.036845 149.55272,140.090926 149.148262,141.163089 C148.927362,141.748615 148.738405,142.346196 148.625256,142.962081 C148.455419,143.886691 148.800491,144.19787 149.727055,143.968839 C149.883395,143.93022 150.030736,143.857448 150.185501,143.811686 C150.472086,143.72686 150.622352,143.834456 150.506728,144.077551 C150.133538,144.862196 149.804438,145.689925 148.809714,145.942395 C148.053885,146.134148 147.806892,146.772133 148.217873,147.442039 C148.578241,148.029351 149.102597,148.470896 149.655746,148.875831 C150.529223,149.515155 151.328916,150.229038 151.965072,151.109225 C152.574908,151.953249 153.072945,152.863795 153.552986,153.783047 C154.23998,155.098528 154.892556,156.431421 155.503967,157.783511 C155.651084,158.108977 155.788078,158.438462 155.868609,158.789376 C156.172065,160.112446 155.694949,161.150679 154.487648,161.791119 C153.591452,162.266594 152.613599,162.51527 151.651718,162.809484 C151.582883,162.830468 151.513374,162.848995 151.444315,162.869086 C150.340266,163.188078 149.732454,164.032103 149.773395,165.176814 C149.786667,165.549382 149.913088,165.875071 150.14456,166.161695 C150.268057,166.314606 150.397853,166.464169 150.537546,166.602793 C151.187198,167.247475 151.453988,168.019397 151.426994,168.931282 C151.408548,169.558329 151.146933,169.98581 150.60773,170.267523 C150.27728,170.440302 149.939182,170.598793 149.588037,170.771795 C149.723906,170.939439 149.908364,170.978504 150.055706,171.07092 C151.02771,171.681225 151.517873,172.780845 151.255133,173.888724 C151.074274,174.651493 150.706708,175.32073 150.064703,175.81317 C149.908139,175.933267 149.750225,176.052471 149.603558,176.183729 C149.036687,176.691125 148.882147,177.266383 149.160184,177.97156 C149.595235,179.075198 149.890368,180.213213 150.050307,181.385158 C150.161656,182.201725 150.1909,183.024543 150.026237,183.837092 C149.649898,185.69524 148.504233,186.866069 146.697444,187.411415 C146.112802,187.587988 145.507689,187.654287 144.892904,187.69603 C142.44816,187.862112 140.00184,187.722817 137.557321,187.778624 C136.908119,187.793581 136.266339,187.71679 135.620736,187.687101 C134.307035,187.626606 132.996708,187.746703 131.68818,187.812778 C130.453436,187.875059 129.218916,188.011451 127.996544,188.223071 C127.39998,188.326425 126.860102,188.574431 126.36364,188.899228 C124.373067,190.200869 122.816646,191.907668 121.659284,193.970069 C121.360327,194.502914 121.219959,195.101611 121.087014,195.694727 C120.621595,197.771638 120.356605,199.876899 120.187894,201.996 C120.00681,204.27136 119.813804,206.546051 119.637894,208.821858 C119.52092,210.332887 119.439714,211.846594 119.314642,213.356953 C119.217464,214.529792 119.077996,215.699059 118.956299,216.869888 C118.854397,217.849412 118.886564,218.830721 118.906585,219.812253 C118.913333,220.14464 119.095092,220.321659 119.375603,220.462739 C120.418241,220.987548 121.452781,221.528205 122.49272,222.058148 C124.028671,222.841008 125.566196,223.621189 127.104622,224.399137 C127.510654,224.604507 127.853926,224.858317 128.109918,225.254992 C129.439141,227.314268 130.789509,229.360151 132.130654,231.411837 C132.786605,232.415246 133.438957,233.420887 134.090859,234.426751 C134.164867,234.541044 134.283865,234.645068 134.21773,234.830793 C133.445031,234.871867 132.684703,234.728332 131.920102,234.670739 C131.00771,234.602208 130.098691,234.491041 129.187873,234.401526 C127.776769,234.262902 126.365665,234.124278 124.953885,233.990564 C124.060164,233.905738 123.165092,233.833858 122.271595,233.747916 C120.9318,233.619113 119.592904,233.480265 118.252883,233.351463 C117.359387,233.26552 116.464315,233.194087 115.570818,233.109038 C114.212802,232.979789 112.85591,232.842057 111.497894,232.712362 C110.586401,232.625303 109.673783,232.548513 108.76229,232.4619 C107.404499,232.332875 106.047157,232.198268 104.689366,232.06768 C103.849407,231.986872 103.009223,231.910528 102.169264,231.829496 C100.757935,231.693551 99.3468303,231.553363 97.9352761,231.419427 C97.0595501,231.336386 96.1824744,231.2654 95.3067485,231.181913 C93.9309611,231.050878 92.5558487,230.91203 91.1802863,230.779879 C90.3225562,230.697508 89.4637014,230.62429 88.6059714,230.541695 C87.2124131,230.407312 85.8197546,230.264893 84.4261963,230.132965 C83.4967076,230.045014 82.5654192,229.974697 81.6359305,229.886522 C80.3316769,229.762854 79.0303476,229.571771 77.7236196,229.520875 C76.7952556,229.484712 76.0218814,229.150986 75.2606544,228.695379 C74.8143558,228.428175 74.3478119,228.194456 73.8958896,227.936181 C73.4198978,227.664066 73.423272,227.659602 73.6941104,227.210691 C74.3412883,226.138974 74.9981391,225.072615 75.6324949,223.993532 C76.9288753,221.788935 78.1849898,219.562462 79.3839673,217.303173 C80.7595297,214.711276 82.0579346,212.084778 83.1943763,209.381044 C83.8667485,207.781394 84.4563395,206.152947 84.8740695,204.467131 C85.0247853,203.858612 85.2747035,203.709273 85.8901636,203.858836 C86.2741513,203.952145 86.2840491,203.9546 86.3839264,203.542968 C86.746319,202.049798 87.0290798,200.541448 87.2270348,199.017695 C87.3808998,197.832133 87.5154192,196.645008 87.6031493,195.452078 C87.6197955,195.225725 87.5840286,195.08978 87.3898978,194.963656 C86.1166871,194.137937 85.5117996,192.885183 85.1892229,191.473044 C84.9523517,190.436821 85.0981186,189.414661 85.408998,188.409913 C85.4715337,188.208115 85.5822086,188.017478 85.5723108,187.802287 C85.4695092,187.678172 85.3658078,187.753846 85.2753783,187.79492 C84.3312679,188.224633 83.3306953,188.430003 82.3038037,188.504784 C81.893272,188.534697 81.4782413,188.458576 81.0812065,188.345623 C80.0993047,188.066365 79.7243149,187.278594 80.1238241,186.339252 C80.3631697,185.776495 80.696544,185.265973 81.0895297,184.797418 C81.8503067,183.890443 82.693865,183.061599 83.5558691,182.250166 C83.882045,181.943005 84.1971984,181.624012 84.5143763,181.307698 C84.5735378,181.248766 84.6558691,181.193183 84.6084049,181.052549 C84.3400409,181.082685 84.1211656,181.247427 83.8838446,181.352344 C83.1095706,181.694775 82.3800613,182.118015 81.682045,182.595053 C81.4440491,182.757786 81.2265235,182.944181 81.0285685,183.152899 C80.8906748,183.29822 80.7563804,183.442425 80.8400613,183.670787 C80.9210429,183.891783 80.7631288,183.916115 80.6108384,183.91232 C79.0645399,183.872139 77.5567076,183.733291 76.3550307,182.57965 C75.3933742,181.65638 74.8888139,180.531312 74.6969325,179.237038 C74.5073006,177.957943 74.6618405,176.711885 75.0030879,175.478106 C75.0269325,175.39194 75.0564008,175.30756 75.0791207,175.22117 C75.1382822,174.995487 75.0141104,174.906866 74.8197546,174.945707 C74.4476892,175.020265 74.0704499,175.028302 73.696135,175.070492 C72.2623108,175.231439 70.8647035,175.075849 69.5048875,174.59591 C69.1964826,174.486974 68.9206953,174.31933 68.6858487,174.090745 C68.3027607,173.718178 68.2265031,173.364362 68.4568507,172.877725 C68.6795501,172.407608 68.9888548,171.987716 69.2927607,171.567155 C70.2413701,170.255023 71.3681391,169.1054 72.5799387,168.033683 C72.604908,168.011584 72.6172802,167.975421 72.6739673,167.883451 C72.4393456,167.965152 72.2994274,168.089713 72.1552352,168.20289 C71.1798569,168.968784 70.2836605,169.816603 69.4652965,170.747017 C69.0597137,171.208205 68.9641104,171.203741 68.5058896,170.805949 C68.0182004,170.382486 67.7064213,169.846516 67.4783231,169.255855 C67.0887117,168.246866 66.915501,167.193008 66.81,166.122854 C66.6838037,164.842196 66.686953,163.559306 66.6644581,162.255433 C66.5873006,162.440712 66.5051943,162.624205 66.4341104,162.811493 C65.5394888,165.167662 63.3545603,166.46908 61.0423108,166.472205 C60.5193047,166.472875 59.998998,166.474214 59.492638,166.316839 C59.233047,166.23603 58.9833538,166.13848 58.7761759,165.956995 C58.4187321,165.643584 58.4153579,165.268338 58.7703272,164.947113 C58.8364622,164.887288 58.9122699,164.837062 58.9880777,164.789291 C59.4186299,164.517846 59.6824949,164.126528 59.8350102,163.650606 C60.1947035,162.528664 60.2752352,161.371228 60.2070757,160.209774 C60.1422904,159.107252 60.0545603,158.00473 59.9164417,156.906226 C59.8431084,156.322932 59.48409,155.936525 59.1300204,155.540965 C58.9460123,155.335373 58.7082413,155.392519 58.4835174,155.651463 C57.9249693,156.295029 57.6161145,157.04552 57.5673006,157.89267 C57.543681,158.301846 57.5493047,158.711916 57.6023926,159.122208 C57.6775256,159.704609 57.2719427,160.042799 56.7028221,159.859306 C56.1206544,159.671795 55.7371166,159.238063 55.4925971,158.705219 C55.1200818,157.893339 54.9968098,157.031234 55.0998364,156.142787 C55.1801431,155.451228 55.3049898,154.766588 55.4410838,154.083511 C55.5967485,153.301991 55.4723517,153.134793 54.6542127,153.087692 C54.2223108,153.062691 53.7922086,153.054431 53.3742536,152.928977 C52.7302249,152.735662 52.571411,152.374926 52.9952147,151.862172 C53.7074029,151.000736 53.9469734,149.982594 54.0448262,148.930075 C54.155726,147.739602 54.1208589,146.542655 54.0038855,145.348833 C53.935726,144.652139 53.5803067,144.159029 53.0273824,143.761683 C51.7597955,142.850244 50.7106339,141.732989 49.8888957,140.409919 C48.9189162,138.848217 48.3630675,137.163071 48.2197751,135.321219 C48.1122495,133.939885 48.391636,132.626413 48.686319,131.304012 C48.7526789,131.006226 48.9038446,130.770944 49.2417178,130.727415 C49.5809407,130.683439 49.7624744,130.894166 49.9329857,131.143065 C50.6804908,132.232863 51.5791616,133.171759 52.738998,133.837647 C53.6592638,134.366027 54.6510634,134.524965 55.6988753,134.360893 C55.8887321,134.331204 56.0502454,134.265798 56.1058078,134.065563 C56.1640695,133.855059 56.0286503,133.737418 55.8788344,133.623795 C54.0531493,132.242462 52.5824335,130.548609 51.4135992,128.594474 C50.538773,127.131662 50.0654806,125.562817 50.2096728,123.843964 C50.2636605,123.200621 50.4035787,122.574021 50.6172802,121.964163 C50.6525971,121.863487 50.692863,121.762365 50.745726,121.669949 C51.0943967,121.06143 51.7649693,121.038884 52.1062168,121.648519 C52.6361963,122.595228 53.3126176,123.418045 54.093865,124.168537 C54.837771,124.883312 55.7377914,125.309231 56.6985481,125.636259 C56.7658078,125.659252 56.8382413,125.673538 56.9093252,125.678673 C57.2163804,125.700772 57.5328834,125.736265 57.7468098,125.444284 C57.9557873,125.158998 57.8714315,124.869472 57.737362,124.583517 C56.7291411,122.434504 56.0646421,120.179234 55.6493865,117.850299 C55.4795501,116.897563 55.4392843,115.936567 55.6037219,114.974456 C55.7375665,114.190703 56.0691411,113.522805 56.6843763,112.993309 C57.3407771,112.428543 57.9301431,112.468947 58.3991616,113.192875 C58.9898773,114.104537 59.8010429,114.676893 60.8747239,114.83159 C61.5506953,114.928917 62.2437628,114.926238 62.920409,114.825116 C63.8483231,114.686268 64.7310225,114.370178 65.604274,114.035336 C65.6546626,114.016139 65.7064008,113.99895 65.7536401,113.973725 C66.1167076,113.779964 66.1383027,113.576827 65.8211247,113.332169 C65.7644376,113.288416 65.6996524,113.255602 65.6402658,113.215421 C65.1039877,112.850667 64.5287935,112.554667 63.9389775,112.288133 C63.0243354,111.874938 62.071002,111.806407 61.0913497,112.001062 C60.8322086,112.052627 60.5435992,112.172947 60.3429448,111.901279 C60.1179959,111.596796 60.2248466,111.283831 60.4117791,111.003457 C60.8387321,110.362793 61.4128016,109.882407 62.1119427,109.559173 C63.7048057,108.822968 65.3831493,108.371155 67.1154806,108.104621 C67.3640491,108.066449 67.6144172,108.035421 67.8596115,107.980953 C68.7819018,107.775807 69.4158078,106.992724 69.4227812,106.051596 C69.4252556,105.712513 69.4086094,105.37343 69.4032106,105.034347 C69.3984867,104.742811 69.4724949,104.466679 69.5991411,104.207065 C69.8940491,103.602118 70.3954601,103.431348 70.9758282,103.777351 C71.3379959,103.993213 71.7087117,104.144338 72.1244172,104.208851 C72.7461759,104.305508 73.1015951,104.061967 73.1778528,103.447867 C73.2264417,103.056103 73.1843763,102.665231 73.1321881,102.274582 C72.9839468,101.167596 73.1072188,100.101014 73.6493456,99.1043017 C73.9150102,98.6158793 74.3127198,98.2602775 74.8161554,98.0307994 C75.328589,97.7973032 75.6493661,97.9457496 75.8057055,98.4736833 C75.856319,98.6442293 75.8889366,98.8214721 75.9127812,98.9980452 C76.1015133,100.385406 76.9896115,100.942805 78.1766667,101.136567 C78.9975051,101.270504 79.6221881,100.998166 80.0399182,100.274462 C80.4063599,99.6396018 80.762454,98.9980452 81.1507157,98.376356 C82.1481391,96.7793846 83.3637628,95.3864434 85.0027403,94.3977677 C86.2278119,93.6586606 87.556135,93.2541719 88.9870348,93.216 C89.6686299,93.1979186 90.3522495,93.1818462 91.0347444,93.2700211 C91.5503272,93.3367662 91.9750307,93.082733 92.2008793,92.5811403 C92.5254806,91.8601146 92.5378528,91.1299367 92.1680368,90.4127059 C92.0782822,90.238365 91.9615337,90.0729532 91.9021472,89.8890136 C91.7894479,89.5396621 91.9228425,89.2771463 92.2755624,89.1818281 C92.5477505,89.1081629 92.822638,89.0632941 93.1229448,89.1034751 C95.4590389,89.4153243 97.5913292,90.299083 99.6651329,91.3551735 C100.001207,91.5263891 100.341779,91.6891222 100.672904,91.869267 C101.650757,92.4016652 102.617362,92.392736 103.608262,91.881991 C104.853129,91.2402112 106.110593,90.6218703 107.371431,90.0108959 C108.955072,89.2434389 110.543661,88.4853575 112.137873,87.7397768 C113.085358,87.2964465 114.094928,87.1417496 115.135092,87.2397466 C115.482188,87.2725611 115.898793,87.2743469 116.055583,87.6745943 C116.202474,88.0493937 115.922863,88.3105701 115.699714,88.5672821 C114.626483,89.8010618 114.194356,91.2634268 114.139468,92.8610679 C114.125971,93.2528326 114.172986,93.6474992 114.080757,94.0354691 C114.072658,94.0696229 114.073108,94.1066787 114.074008,94.1421719 C114.078507,94.335264 114.148691,94.5013454 114.336748,94.5716621 C114.516483,94.6388537 114.646278,94.520543 114.754254,94.395089 C115.05771,94.0421659 115.349468,93.6791976 115.658773,93.331632 C116.707935,92.1529894 117.786564,91.0053756 119.14998,90.1673786 C119.333538,90.0546486 119.512147,89.9396863 119.722249,89.8731644 C120.027505,89.77673 120.301043,89.8265098 120.516094,90.050184 C120.716074,90.2582323 120.656237,90.5138281 120.563333,90.7551373 C120.518569,90.8716621 120.461207,90.9834992 120.408569,91.0968989 C120.299243,91.3315113 120.283272,91.5790709 120.310266,91.8308718 C120.332086,92.0351252 120.399796,92.2239759 120.610123,92.3023288 C120.819775,92.3804585 120.938323,92.2161629 121.067669,92.0949502 C121.577403,91.6170196 122.082188,91.134178 122.598671,90.6633906 C123.417035,89.9171403 124.336176,89.3291584 125.410982,89.0215505 C127.121043,88.5322353 128.681963,88.8251101 130.071922,89.9490618 C130.892761,90.6127179 131.4891,91.4620995 132.078241,92.3179548 C132.128855,92.3916199 132.165072,92.4757768 132.220184,92.5454238 C132.407791,92.7829382 132.592474,92.7653032 132.679755,92.4675173 C132.804151,92.0424917 132.919775,91.6098763 132.846442,91.153822 C132.769959,90.6781237 132.716196,90.1988537 132.642188,89.7229321 C132.599673,89.4490317 132.556033,89.1811584 132.857464,89.0179789 C133.151022,88.8590407 133.415562,88.9492247 133.659632,89.1333876 C134.273742,89.5965852 134.727014,90.1939427 135.069611,90.870546 C135.744233,92.2027692 136.162863,93.6245068 136.509509,95.0685671 C136.813865,96.3369472 137.011145,97.6258643 137.251166,98.9065219 C137.269836,99.008537 137.263538,99.1192579 137.402106,99.2759638 Z" id="Shape" fill="#333333"></path>
                <path d="M53.9864314,30.311074 C53.9864314,30.311074 45.3333989,-5.02397577e-09 79.2838463,0 C113.234294,5.02397551e-09 104.406388,0.330842428 122.523598,0.330842387 C140.640808,0.330842346 156.101692,2.21513104 151.781896,30.0820409" id="Path-13" fill="#222222"></path>
            </g>
        </g>
    </g>
</svg>