<?xml version="1.0" encoding="UTF-8" standalone="no"?>
<svg width="206px" height="287px" viewBox="0 0 206 287" version="1.1" xmlns="http://www.w3.org/2000/svg" xmlns:xlink="http://www.w3.org/1999/xlink">
    <!-- Generator: Sketch 39.1 (31720) - http://www.bohemiancoding.com/sketch -->
    <title>Resume</title>
    <desc>Created with Sketch.</desc>
    <defs>
        <rect id="path-1" x="0" y="35" width="206" height="252" rx="8"></rect>
        <mask id="mask-2" maskContentUnits="userSpaceOnUse" maskUnits="objectBoundingBox" x="0" y="0" width="206" height="252" fill="white">
            <use xlink:href="#path-1"></use>
        </mask>
    </defs>
    <g id="Page-1" stroke="none" stroke-width="1" fill="none" fill-rule="evenodd">
        <g id="Artboard-3" transform="translate(-2085.000000, -1141.000000)">
            <g id="Resume" transform="translate(2085.000000, 1141.000000)">
                <use id="Rectangle-14" stroke="#222222" mask="url(#mask-2)" stroke-width="30" xlink:href="#path-1"></use>
                <g id="me" transform="translate(48.000000, 87.000000)" fill="#333333">
                    <g id="Layer_1">
                        <path d="M89.4021063,12.2759638 C89.7975665,11.6234691 89.9858487,10.9607059 90.06818,10.2704857 C90.1876278,9.26975566 90.0042945,8.31478733 89.553047,7.41138462 C89.4731902,7.25133032 89.381411,7.09641026 89.3123517,6.93211463 C89.1193456,6.47405128 89.3125767,6.17715837 89.8193865,6.22135747 C90.5671166,6.2867632 91.2523108,6.53744796 91.8360532,7.0307813 C92.8624949,7.89846757 93.2039673,9.00991855 93.0165849,10.3012911 C92.8692434,11.3178703 92.567362,12.2846697 91.9977914,13.1565973 C91.8952147,13.3137496 91.722229,13.4831795 91.8729448,13.6874329 C92.0279346,13.8974902 92.2582822,13.8180211 92.4708589,13.7856531 C92.967546,13.7102021 93.4635583,13.635644 93.9681186,13.6200181 C95.7161963,13.565997 97.306135,14.0231674 98.7419836,15.0218884 C99.6406544,15.6469261 100.555971,16.2480784 101.46364,16.8603922 C101.806012,17.0914329 102.156933,17.3079638 102.525849,17.4959216 C103.551391,18.0189442 104.627321,18.1999819 105.762188,17.9671554 C106.139202,17.8899186 106.507444,17.8975083 106.884008,17.9769774 C108.067239,18.2263228 108.794724,19.3571946 108.510389,20.5233363 C108.382843,21.0461357 108.147096,21.2517285 107.608569,21.2660151 C106.979162,21.2827572 106.349305,21.2798552 105.719448,21.2843198 C105.593476,21.2852127 105.46638,21.2693635 105.341984,21.2823107 C104.962945,21.3215988 104.864417,21.4818763 105.032454,21.8191735 C105.175521,22.1064676 105.350307,22.3785822 105.51092,22.6573937 C105.921677,23.3699367 106.333558,24.0820332 106.74319,24.7952459 C107.046646,25.3238492 107.190838,25.3698341 107.720368,25.0490558 C108.072863,24.8356501 108.407362,24.5930015 108.750859,24.3646395 C108.900225,24.2653032 109.047342,24.1594932 109.228425,24.1231071 C109.58137,24.0523439 109.7809,24.1862805 109.849509,24.5363017 C110.04274,25.523638 109.374642,26.835994 108.451902,27.2578944 C107.650859,27.6242112 106.83272,27.9409713 105.970266,28.1467873 C105.11411,28.351264 104.372229,28.1481267 103.696933,27.6213092 C103.64092,27.5775566 103.582658,27.5369291 103.475133,27.5242051 C103.538119,27.6097014 103.596155,27.6992157 103.66454,27.7800241 C104.543865,28.8222745 105.322413,29.9372971 106.072168,31.0726335 C106.442434,31.6333816 106.544785,32.2479276 106.477076,32.9124766 C106.343456,34.2261719 106.219509,35.537635 106.585051,36.8453032 C106.949018,38.1478371 107.644785,39.2581719 108.483845,40.2968507 C108.540082,40.3664977 108.607791,40.4283318 108.655706,40.5028899 C108.730389,40.6187451 108.890102,40.7178582 108.829366,40.8721086 C108.754908,41.0609593 108.556053,41.0777014 108.377444,41.10181 C108.003579,41.1524827 107.656933,41.0629683 107.348528,40.8613937 C106.868037,40.5475354 106.398344,40.2169351 105.927076,39.8896833 C104.983865,39.2345098 104.025583,38.6034449 102.970798,38.0065339 C103.007914,38.1891342 103.125337,38.2371282 103.211493,38.3078914 C104.788384,39.6006033 106.199039,41.041092 107.24955,42.799457 C107.936769,43.9493032 108.388241,45.18219 108.56955,46.5101719 C108.660879,47.1800784 108.543681,47.8231976 108.354274,48.4638612 C108.065665,49.4400362 107.813947,50.4224615 107.689775,51.4385943 C107.550757,52.5763861 107.646585,53.6806938 107.986033,54.7702685 C108.04182,54.9492971 108.185562,55.1428356 107.93272,55.2861478 C107.741288,55.3946365 107.484847,55.3198552 107.312761,55.1068959 C107.151247,54.9068839 107.09411,54.6593243 107.020552,54.4206938 C106.847117,53.8579367 106.732618,53.2802232 106.528364,52.7239397 C106.093313,51.5388235 105.298119,50.783644 104.042679,50.5043861 C103.77364,50.4445611 103.551391,50.4610799 103.324192,50.596356 C103.089346,50.7360965 102.899264,50.9209291 102.728078,51.1323258 C101.994519,52.0368446 101.55272,53.0909261 101.148262,54.163089 C100.927362,54.7486154 100.738405,55.3461961 100.625256,55.9620814 C100.455419,56.8866908 100.800491,57.1978703 101.727055,56.9688386 C101.883395,56.9302202 102.030736,56.857448 102.185501,56.8116863 C102.472086,56.7268597 102.622352,56.8344555 102.506728,57.0775505 C102.133538,57.8621961 101.804438,58.6899246 100.809714,58.9423952 C100.053885,59.1341478 99.8068916,59.7721327 100.217873,60.4420392 C100.578241,61.0293514 101.102597,61.4708959 101.655746,61.8758311 C102.529223,62.5151554 103.328916,63.2290377 103.965072,64.1092247 C104.574908,64.9532489 105.072945,65.8637949 105.552986,66.7830468 C106.23998,68.0985279 106.892556,69.4314208 107.503967,70.7835113 C107.651084,71.1089774 107.788078,71.4384615 107.868609,71.7893756 C108.172065,73.1124465 107.694949,74.1506787 106.487648,74.7911192 C105.591452,75.2665943 104.613599,75.51527 103.651718,75.8094842 C103.582883,75.8304676 103.513374,75.8489955 103.444315,75.869086 C102.340266,76.1880784 101.732454,77.0321026 101.773395,78.1768145 C101.786667,78.5493816 101.913088,78.8750709 102.14456,79.1616953 C102.268057,79.3146063 102.397853,79.4641689 102.537546,79.6027934 C103.187198,80.2474751 103.453988,81.0193967 103.426994,81.9312821 C103.408548,82.5583288 103.146933,82.98581 102.60773,83.2675234 C102.27728,83.4403017 101.939182,83.5987934 101.588037,83.7717949 C101.723906,83.9394389 101.908364,83.9785038 102.055706,84.0709201 C103.02771,84.6812247 103.517873,85.7808446 103.255133,86.888724 C103.074274,87.6514932 102.706708,88.32073 102.064703,88.8131704 C101.908139,88.933267 101.750225,89.0524706 101.603558,89.1837285 C101.036687,89.6911252 100.882147,90.2663831 101.160184,90.9715596 C101.595235,92.0751976 101.890368,93.2132127 102.050307,94.3851584 C102.161656,95.2017255 102.1909,96.024543 102.026237,96.837092 C101.649898,98.6952398 100.504233,99.8660694 98.6974438,100.411415 C98.1128016,100.587988 97.5076892,100.654287 96.8929039,100.69603 C94.4481595,100.862112 92.0018405,100.722817 89.5573211,100.778624 C88.9081186,100.793581 88.2663395,100.71679 87.6207362,100.687101 C86.3070348,100.626606 84.9967076,100.746703 83.68818,100.812778 C82.4534356,100.875059 81.2189162,101.011451 79.996544,101.223071 C79.3999796,101.326425 78.8601022,101.574431 78.3636401,101.899228 C76.3730675,103.200869 74.8166462,104.907668 73.6592843,106.970069 C73.3603272,107.502914 73.2199591,108.101611 73.0870143,108.694727 C72.6215951,110.771638 72.3566053,112.876899 72.1878937,114.996 C72.0068098,117.27136 71.8138037,119.546051 71.6378937,121.821858 C71.5209202,123.332887 71.4397137,124.846594 71.3146421,126.356953 C71.2174642,127.529792 71.0779959,128.699059 70.9562986,129.869888 C70.8543967,130.849412 70.8865644,131.830721 70.9065849,132.812253 C70.9133333,133.14464 71.095092,133.321659 71.3756033,133.462739 C72.4182413,133.987548 73.4527812,134.528205 74.4927198,135.058148 C76.0286708,135.841008 77.5661963,136.621189 79.1046217,137.399137 C79.5106544,137.604507 79.8539264,137.858317 80.1099182,138.254992 C81.4391411,140.314268 82.7895092,142.360151 84.1306544,144.411837 C84.7866053,145.415246 85.4389571,146.420887 86.0908589,147.426751 C86.1648671,147.541044 86.283865,147.645068 86.2177301,147.830793 C85.4450307,147.871867 84.6847035,147.728332 83.9201022,147.670739 C83.0077096,147.602208 82.0986912,147.491041 81.1878732,147.401526 C79.7767689,147.262902 78.3656646,147.124278 76.9538855,146.990564 C76.0601636,146.905738 75.165092,146.833858 74.2715951,146.747916 C72.9317996,146.619113 71.5929039,146.480265 70.2528834,146.351463 C69.3593865,146.26552 68.4643149,146.194087 67.570818,146.109038 C66.2128016,145.979789 64.85591,145.842057 63.4978937,145.712362 C62.5864008,145.625303 61.6737832,145.548513 60.7622904,145.4619 C59.404499,145.332875 58.0471575,145.198268 56.6893661,145.06768 C55.849407,144.986872 55.0092229,144.910528 54.1692638,144.829496 C52.7579346,144.693551 51.3468303,144.553363 49.9352761,144.419427 C49.0595501,144.336386 48.1824744,144.2654 47.3067485,144.181913 C45.9309611,144.050878 44.5558487,143.91203 43.1802863,143.779879 C42.3225562,143.697508 41.4637014,143.62429 40.6059714,143.541695 C39.2124131,143.407312 37.8197546,143.264893 36.4261963,143.132965 C35.4967076,143.045014 34.5654192,142.974697 33.6359305,142.886522 C32.3316769,142.762854 31.0303476,142.571771 29.7236196,142.520875 C28.7952556,142.484712 28.0218814,142.150986 27.2606544,141.695379 C26.8143558,141.428175 26.3478119,141.194456 25.8958896,140.936181 C25.4198978,140.664066 25.423272,140.659602 25.6941104,140.210691 C26.3412883,139.138974 26.9981391,138.072615 27.6324949,136.993532 C28.9288753,134.788935 30.1849898,132.562462 31.3839673,130.303173 C32.7595297,127.711276 34.0579346,125.084778 35.1943763,122.381044 C35.8667485,120.781394 36.4563395,119.152947 36.8740695,117.467131 C37.0247853,116.858612 37.2747035,116.709273 37.8901636,116.858836 C38.2741513,116.952145 38.2840491,116.9546 38.3839264,116.542968 C38.746319,115.049798 39.0290798,113.541448 39.2270348,112.017695 C39.3808998,110.832133 39.5154192,109.645008 39.6031493,108.452078 C39.6197955,108.225725 39.5840286,108.08978 39.3898978,107.963656 C38.1166871,107.137937 37.5117996,105.885183 37.1892229,104.473044 C36.9523517,103.436821 37.0981186,102.414661 37.408998,101.409913 C37.4715337,101.208115 37.5822086,101.017478 37.5723108,100.802287 C37.4695092,100.678172 37.3658078,100.753846 37.2753783,100.79492 C36.3312679,101.224633 35.3306953,101.430003 34.3038037,101.504784 C33.893272,101.534697 33.4782413,101.458576 33.0812065,101.345623 C32.0993047,101.066365 31.7243149,100.278594 32.1238241,99.3392519 C32.3631697,98.7764947 32.696544,98.2659729 33.0895297,97.7974178 C33.8503067,96.8904434 34.693865,96.0615988 35.5558691,95.2501659 C35.882045,94.9430045 36.1971984,94.6240121 36.5143763,94.3076983 C36.5735378,94.2487662 36.6558691,94.1931825 36.6084049,94.052549 C36.3400409,94.0826848 36.1211656,94.2474268 35.8838446,94.3523439 C35.1095706,94.6947753 34.3800613,95.1180151 33.682045,95.5950528 C33.4440491,95.7577858 33.2265235,95.944181 33.0285685,96.1528989 C32.8906748,96.2982202 32.7563804,96.4424253 32.8400613,96.6707873 C32.9210429,96.8917828 32.7631288,96.9161146 32.6108384,96.9123198 C31.0645399,96.8721388 29.5567076,96.7332911 28.3550307,95.5796501 C27.3933742,94.6563801 26.8888139,93.5313122 26.6969325,92.2370377 C26.5073006,90.9579427 26.6618405,89.7118854 27.0030879,88.4781056 C27.0269325,88.3919397 27.0564008,88.3075596 27.0791207,88.2211704 C27.1382822,87.9954872 27.0141104,87.9068658 26.8197546,87.9457074 C26.4476892,88.0202655 26.0704499,88.0283017 25.696135,88.0704917 C24.2623108,88.2314389 22.8647035,88.0758492 21.5048875,87.5959095 C21.1964826,87.4869744 20.9206953,87.3193303 20.6858487,87.0907451 C20.3027607,86.718178 20.2265031,86.364362 20.4568507,85.8777255 C20.6795501,85.4076078 20.9888548,84.9877164 21.2927607,84.5671554 C22.2413701,83.2550226 23.3681391,82.1053997 24.5799387,81.0336833 C24.604908,81.0115837 24.6172802,80.9754208 24.6739673,80.883451 C24.4393456,80.9651523 24.2994274,81.0897134 24.1552352,81.2028899 C23.1798569,81.9687843 22.2836605,82.8166033 21.4652965,83.7470166 C21.0597137,84.2082051 20.9641104,84.2037406 20.5058896,83.8059487 C20.0182004,83.3824857 19.7064213,82.8465158 19.4783231,82.2558552 C19.0887117,81.2468658 18.915501,80.1930075 18.81,79.1228537 C18.6838037,77.8421961 18.686953,76.5593062 18.6644581,75.2554329 C18.5873006,75.4407119 18.5051943,75.6242051 18.4341104,75.8114932 C17.5394888,78.1676621 15.3545603,79.4690799 13.0423108,79.4722051 C12.5193047,79.4728748 11.998998,79.4742142 11.492638,79.3168386 C11.233047,79.2360302 10.9833538,79.1384796 10.7761759,78.9569955 C10.4187321,78.6435837 10.4153579,78.2683379 10.7703272,77.9471131 C10.8364622,77.8872881 10.9122699,77.8370618 10.9880777,77.7892911 C11.4186299,77.5178462 11.6824949,77.1265279 11.8350102,76.6506063 C12.1947035,75.5286637 12.2752352,74.3712278 12.2070757,73.2097738 C12.1422904,72.1072519 12.0545603,71.00473 11.9164417,69.9062262 C11.8431084,69.3229321 11.48409,68.9365249 11.1300204,68.5409653 C10.9460123,68.3353725 10.7082413,68.3925189 10.4835174,68.651463 C9.92496933,69.2950287 9.61611452,70.0455204 9.56730061,70.8926697 C9.54368098,71.3018462 9.5493047,71.7119155 9.60239264,72.1222081 C9.67752556,72.7046094 9.27194274,73.0427994 8.70282209,72.8593062 C8.1206544,72.6717949 7.73711656,72.2380633 7.49259714,71.7052187 C7.1200818,70.8933394 6.99680982,70.0312338 7.0998364,69.1427873 C7.18014315,68.4512278 7.30498978,67.7665882 7.44108384,67.0835113 C7.59674847,66.301991 7.47235174,66.1347934 6.65421268,66.0876923 C6.22231084,66.0626908 5.79220859,66.0544314 5.37425358,65.9289774 C4.73022495,65.7356621 4.57141104,65.3749261 4.99521472,64.8621719 C5.70740286,64.000736 5.94697342,62.9825943 6.04482618,61.9300754 C6.15572597,60.7396018 6.1208589,59.5426546 6.00388548,58.3488326 C5.93572597,57.6521388 5.58030675,57.1590287 5.02738241,56.7616833 C3.7597955,55.8502443 2.71063395,54.7329894 1.88889571,53.4099186 C0.918916155,51.8482172 0.363067485,50.1630709 0.219775051,48.3212187 C0.112249489,46.9398854 0.391635992,45.6264133 0.686319018,44.3040121 C0.752678937,44.0062262 0.903844581,43.7709442 1.24171779,43.7274148 C1.5809407,43.6834389 1.76247444,43.8941659 1.93298569,44.1430649 C2.6804908,45.2328627 3.57916155,46.1717587 4.73899796,46.8376471 C5.6592638,47.3660271 6.65106339,47.5249653 7.69887526,47.3608929 C7.88873211,47.3312036 8.0502454,47.2657979 8.10580777,47.0655626 C8.16406953,46.8550588 8.02865031,46.7374178 7.87883436,46.6237949 C6.05314928,45.2424615 4.58243354,43.5486094 3.41359918,41.5944736 C2.53877301,40.1316621 2.06548057,38.5628175 2.2096728,36.8439638 C2.26366053,36.2006214 2.40357873,35.5740211 2.61728016,34.9641629 C2.65259714,34.8634872 2.69286299,34.762365 2.74572597,34.6699487 C3.09439673,34.0614299 3.76496933,34.0388839 4.10621677,34.6485189 C4.63619632,35.5952278 5.31261759,36.4180452 6.09386503,37.168537 C6.83777096,37.8833122 7.73779141,38.3092308 8.69854806,38.6362594 C8.76580777,38.6592519 8.83824131,38.6735385 8.90932515,38.6786727 C9.21638037,38.7007722 9.53288344,38.7362655 9.74680982,38.4442836 C9.95578732,38.1589985 9.87143149,37.8694721 9.73736196,37.5835173 C8.7291411,35.4345038 8.06464213,33.1792338 7.6493865,30.8502986 C7.4795501,29.8975626 7.43928425,28.9365671 7.60372188,27.9744555 C7.73756646,27.1907029 8.0691411,26.5228054 8.68437628,25.9933092 C9.3407771,25.428543 9.93014315,25.4689472 10.3991616,26.1928748 C10.9898773,27.104537 11.8010429,27.6768929 12.8747239,27.8315897 C13.5506953,27.928917 14.2437628,27.9262383 14.920409,27.8251161 C15.8483231,27.6862685 16.7310225,27.370178 17.604274,27.0353363 C17.6546626,27.0161388 17.7064008,26.9989502 17.7536401,26.9737255 C18.1167076,26.7799638 18.1383027,26.5768265 17.8211247,26.3321689 C17.7644376,26.2884163 17.6996524,26.2556018 17.6402658,26.2154208 C17.1039877,25.8506667 16.5287935,25.5546667 15.9389775,25.2881327 C15.0243354,24.8749382 14.071002,24.8064072 13.0913497,25.0010618 C12.8322086,25.0526275 12.5435992,25.1729472 12.3429448,24.901279 C12.1179959,24.5967964 12.2248466,24.2838311 12.4117791,24.003457 C12.8387321,23.3627934 13.4128016,22.8824072 14.1119427,22.5591735 C15.7048057,21.8229683 17.3831493,21.3711554 19.1154806,21.1046214 C19.3640491,21.0664495 19.6144172,21.0354208 19.8596115,20.9809532 C20.7819018,20.7758069 21.4158078,19.992724 21.4227812,19.0515958 C21.4252556,18.7125128 21.4086094,18.3734299 21.4032106,18.0343469 C21.3984867,17.7428115 21.4724949,17.4666787 21.5991411,17.2070649 C21.8940491,16.6021176 22.3954601,16.4313484 22.9758282,16.7773514 C23.3379959,16.9932127 23.7087117,17.1443379 24.1244172,17.2088507 C24.7461759,17.3055083 25.1015951,17.0619668 25.1778528,16.4478673 C25.2264417,16.0561026 25.1843763,15.6652308 25.1321881,15.2745822 C24.9839468,14.1675958 25.1072188,13.1010136 25.6493456,12.1043017 C25.9150102,11.6158793 26.3127198,11.2602775 26.8161554,11.0307994 C27.328589,10.7973032 27.6493661,10.9457496 27.8057055,11.4736833 C27.856319,11.6442293 27.8889366,11.8214721 27.9127812,11.9980452 C28.1015133,13.3854057 28.9896115,13.9428054 30.1766667,14.1365671 C30.9975051,14.2705038 31.6221881,13.9981659 32.0399182,13.2744615 C32.4063599,12.6396018 32.762454,11.9980452 33.1507157,11.376356 C34.1481391,9.77938462 35.3637628,8.38644344 37.0027403,7.39776772 C38.2278119,6.65866063 39.556135,6.25417195 40.9870348,6.216 C41.6686299,6.19791855 42.3522495,6.18184615 43.0347444,6.27002112 C43.5503272,6.33676621 43.9750307,6.08273303 44.2008793,5.58114027 C44.5254806,4.86011463 44.5378528,4.12993665 44.1680368,3.41270588 C44.0782822,3.23836501 43.9615337,3.07295324 43.9021472,2.88901357 C43.7894479,2.53966214 43.9228425,2.2771463 44.2755624,2.18182805 C44.5477505,2.1081629 44.822638,2.06329412 45.1229448,2.10347511 C47.4590389,2.41532428 49.5913292,3.29908296 51.6651329,4.35517345 C52.0012065,4.52638914 52.3417791,4.68912217 52.6729039,4.86926697 C53.6507566,5.40166516 54.617362,5.39273605 55.6082618,4.88199095 C56.8531288,4.24021116 58.110593,3.62187029 59.3714315,3.01089593 C60.9550716,2.24343891 62.5436605,1.48535747 64.1378732,0.739776772 C65.0853579,0.296446456 66.0949284,0.141749623 67.135092,0.239746606 C67.4821881,0.272561086 67.8987935,0.274346908 68.0555828,0.674594268 C68.2024744,1.04939367 67.922863,1.31057014 67.6997137,1.56728205 C66.6264826,2.80106184 66.1943558,4.26342685 66.1394683,5.86106787 C66.1259714,6.25283258 66.1729857,6.64749925 66.0807566,7.03546908 C66.0726585,7.06962293 66.0731084,7.10667873 66.0740082,7.14217195 C66.0785072,7.33526395 66.1486912,7.5013454 66.3367485,7.57166214 C66.5164826,7.6388537 66.6462781,7.52054299 66.7542536,7.39508899 C67.0577096,7.04216591 67.3494683,6.67919759 67.658773,6.33163198 C68.7079346,5.15298944 69.7865644,4.00537557 71.1499796,3.16737858 C71.3335378,3.05464857 71.5121472,2.93968627 71.7222495,2.8731644 C72.0275051,2.77673002 72.3010429,2.8265098 72.5160941,3.05018401 C72.7160736,3.25823228 72.6562372,3.51382805 72.5633333,3.75513725 C72.5185685,3.87166214 72.4612065,3.98349925 72.4085685,4.09689894 C72.2992434,4.33151131 72.283272,4.57907089 72.3102658,4.83087179 C72.3320859,5.03512519 72.3997955,5.22397587 72.6101227,5.30232881 C72.8197751,5.38045852 72.9383231,5.2161629 73.0676687,5.09495023 C73.5774029,4.61701961 74.0821881,4.13417798 74.5986708,3.66339065 C75.4170348,2.91714027 76.3361759,2.32915837 77.4109816,2.02155053 C79.1210429,1.53223529 80.6819632,1.82511011 82.0719223,2.94906184 C82.8927607,3.61271795 83.4891002,4.46209955 84.0782413,5.31795475 C84.1288548,5.39161991 84.1650716,5.47577677 84.220184,5.54542383 C84.4077914,5.78293816 84.5924744,5.76530317 84.6797546,5.46751735 C84.8041513,5.0424917 84.9197751,4.60987632 84.8464417,4.15382202 C84.7699591,3.67812368 84.7161963,3.1988537 84.6421881,2.72293213 C84.5996728,2.44903167 84.5560327,2.18115837 84.8574642,2.01797888 C85.1510225,1.85904072 85.4155624,1.94922474 85.6596319,2.13338763 C86.2737423,2.59658522 86.7270143,3.19394268 87.0696115,3.870546 C87.7442331,5.20276923 88.162863,6.62450679 88.5095092,8.06856712 C88.813865,9.33694721 89.0111452,10.6258643 89.2511656,11.9065219 C89.2698364,12.008537 89.2635378,12.1192579 89.4021063,12.2759638 Z" id="Shape"></path>
                    </g>
                </g>
                <path d="M53.9864314,30.311074 C53.9864314,30.311074 45.3333989,-5.02397577e-09 79.2838463,0 C113.234294,5.02397551e-09 104.406388,0.330842428 122.523598,0.330842387 C140.640808,0.330842346 156.101692,2.21513104 151.781896,30.0820409" id="Path-13" fill="#222222"></path>
            </g>
        </g>
    </g>
</svg>