<svg id="Layer_1" data-name="Layer 1" xmlns="http://www.w3.org/2000/svg" viewBox="0 0 68.95 138.51"><defs><style>.cls-1{fill:none;stroke:#000;stroke-miterlimit:10;stroke-width:2px;}</style></defs><title>Logo</title><path d="M46,56.66c0.27,3.21-.78,7,1.3,9.74s5.8,2.57,9,2.26c5.87-.58,10.13-2.38,10.44-8.68,0.46-9.34.79-18.85,0.67-28.19-0.09-7.36-4.8-7.64-11.05-7.15A112.81,112.81,0,0,0,43,26.46c-3.56.72-7.56,1.26-9.06,5-1.72,4.3-1.21,10.25-1.42,14.8q-0.4,8.84-.1,17.69c0.23,6.74-1.73,19.14,7.22,20.21,9.81,1.18,21.39.06,31.1-1.59,6.47-1.1,9.86-6.17,10.74-12.39,2.21-15.56,1.21-32.29-.52-47.83-0.34-3.06-.32-7.08-1.93-9.81-2-3.46-5.93-3.92-9.59-4.31a108.49,108.49,0,0,0-29,1c-12,2-26,6.36-26.45,20.7-0.49,16.54.32,33.2,0.8,49.74q0.92,31.75,2.51,63.48a3.06,3.06,0,0,0,3,3h3.74a3,3,0,0,0,3-3q-1.37-21.7-2.26-43.43C23.86,77.69,22.59,55.3,24,33.2c0.19-3,.2-6.45,1.24-9.33,2.08-5.77,11.66-8.11,17.78-8.94,3.81-.52,2.19-6.3-1.6-5.79-10.14,1.37-21,5.65-22.71,16.77-1.35,9-1.19,18.3-1.16,27.38,0.07,24.16,1.21,48.32,2.5,72.44,0.31,5.83.64,11.65,1,17.47l3-3H20.32l3,3q-2.18-41.89-3-83.85C20.08,49.62,19.58,39.75,20,30,20.52,18.3,35.16,16,44.5,14.73a101.54,101.54,0,0,1,24.1-.56c2.42,0.25,4.61.54,5.72,2.94,0.66,1.44.52,3.7,0.7,5.27,0.38,3.44.66,6.88,0.88,10.33,0.75,11.8,1.36,24.16-.16,35.94A12.47,12.47,0,0,1,74,74.25c-2.46,3.55-8.56,3-12.43,3.33-3.49.31-7,.53-10.48,0.63-2,.06-10.2,1.21-11.63-0.17-0.74-.72-0.47-5.11-0.54-6.22q-0.24-3.43-.37-6.87-0.27-6.88-.11-13.76,0.15-6.39.66-12.76c0.2-2.45-.11-4.35,2.4-5.48,1.62-.73,3.88-0.86,5.63-1.16,2.51-.44,5-0.76,7.58-1,1-.09,5.9-1,6.54-0.43,0.43,0.41.15,2.23,0.15,2.74,0,4.24-.2,8.48-0.3,12.71L60.75,58.72c-0.05,2.16.24,2.74-2.3,3.55-1.65.53-4.43,1-5.68-.21s-0.63-3.65-.78-5.41c-0.32-3.82-6.32-3.85-6,0h0Z" transform="translate(-13.85 -7.71)"/><path class="cls-1" d="M32.59,14.13" transform="translate(-13.85 -7.71)"/><path class="cls-1" d="M26.88,16.16" transform="translate(-13.85 -7.71)"/></svg>