<svg id="Layer_1" data-name="Layer 1" xmlns="http://www.w3.org/2000/svg" viewBox="0 0 222.22 336.54"><defs><style>.cls-1,.cls-6{fill:#fff;}.cls-1{stroke:#333;}.cls-1,.cls-2,.cls-3,.cls-5,.cls-6{stroke-miterlimit:10;}.cls-2,.cls-4{fill:#666;}.cls-2,.cls-3,.cls-6{stroke:#fff;}.cls-5{stroke:#000;}</style></defs><title>Logo</title><polygon class="cls-1" points="62.94 159.95 48.84 159.6 51.52 183.49 156.94 335.79 179.97 319.89 62.94 159.95"/><path class="cls-2" d="M142.07,223.28h58.25c21.22,0,38.46-15.39,38.58-34.45h0c0.12-19.59-20.83-35.53-39.34-35.53H141.09V109.62h58.59c48.06,0,86.92,35.15,86.59,78.3h0c-0.35,44.68-40.79,80.73-90.55,80.7H159Z" transform="translate(-79.19 -88.23)"/><path class="cls-3" d="M141.09,202.84h59.84c21.8,0,39.51-15.39,39.63-34.45h0c0.13-19.59-21.4-35.53-40.41-35.53H140.09V89.19h60.18c49.36,0,89.28,35.15,88.94,78.3h0c-0.36,44.68-41.9,80.73-93,80.7l-55.07,0Z" transform="translate(-79.19 -88.23)"/><polygon class="cls-4" points="105.29 160.58 62.94 160.58 179.41 320.03 220.75 320.03 105.29 160.58"/><rect x="21.89" y="1.88" width="41.27" height="318.93"/><polygon class="cls-5" points="220.6 320.82 179.97 320.82 157.94 335.79 198.57 335.79 220.6 320.82"/><polygon points="63.16 320.82 22.53 320.82 0.5 335.79 41.12 335.79 63.16 320.82"/><polygon class="cls-6" points="21.89 0.95 0.5 15.73 0.5 335.59 21.89 320.82 21.89 0.95"/></svg>