<svg class="pav_logo" xmlns="http://www.w3.org/2000/svg" xmlns:xlink="http://www.w3.org/1999/xlink" viewBox="0 0 147.26 143.301">               
	<a xlink:href="../index.html" target="_top"> 
	<defs>    
	<style type="text/css">
		.pav_logo{
			height: 500px;
			cursor:pointer;
		}

		.logo{
			stroke: #ccc;
		stroke-width: 5px;
			fill-opacity:0;
			stroke-width: 7px;
			stroke-linecap: round;
			stroke-linejoin: round;
			transition: 1s all cubic-bezier(.62,.01,.77,.96);
			-o-transition: 1s all cubic-bezier(.62,.01,.77,.96);
			-moz-transition: 1s all cubic-bezier(.62,.01,.77,.96);
		}

		.house{
			stroke-dasharray: 393;
			stroke-dashoffset: 394;
		}

		.p{
			stroke-dasharray: 416;
			stroke-dashoffset: 0;
			transition: .6s all cubic-bezier(.62,.01,.77,.96);
			-o-transition: .6s all cubic-bezier(.62,.01,.77,.96);
			-moz-transition: .6s all cubic-bezier(.62,.01,.77,.96);
		}

		.pav_logo:hover .p{
			stroke-dashoffset: 417;
		}

		.pav_logo:hover .house{
			stroke-dashoffset: 0;
			stroke: #d88683;
		}

	</style>
</defs>

	<g class="cntn">
		<polyline class="logo house" points="34.46 138.03 95.46 138.03 95.46 93.03 109.35 93.03 55.38 43.46 3.5 93.03 16.46 93.03 16.46 138.03 34.46 138.03"/>

		<path class="logo p" d="M33,135.69C31,96.39,30.5,41.92,30.83,22a13.79,13.79,0,0,1,5.39-10.72C38.6,9.49,46.4,6.91,46.4,6.91c6.67-2.13,23.33-4.68,38.68-2.67,1.83,0.24,3.83.64,4.94,2.11a5.35,5.35,0,0,1,1.1,3.32C90.45,32.92,86.72,58.14,85,65a15.9,15.9,0,0,1-1.59,3.56,8.25,8.25,0,0,1-6.18,3.85c-11.5,1.36-14.12,1.88-25.7,1.54a3.87,3.87,0,0,1-2.08-.46c-0.94-.63-1.14-1.9-1.25-3a222.7,222.7,0,0,1,0-43.19,5.06,5.06,0,0,1,1.07-3.16A5,5,0,0,1,51.62,23a106.1,106.1,0,0,1,21.32-2.89,3.74,3.74,0,0,1,1.89.27c1.28,0.64,1.43,2.38,1.39,3.81L73.47,54c-0.53,2.67-2.12,4.38-3.78,4.53a34.28,34.28,0,0,1-5.81.08,3.12,3.12,0,0,1-3.05-3.19v0c0-2,.13-5.25,0-6" transform="translate(0 -0.01)"/>
	</g>
	<script type="text/javascript">
$(window).scroll(function() {
  if ($(document).scrollTop() > 50) {
    $('pav_logo').addClass('change');
  } else {
    $('pav_logo').removeClass('change');
  }
});
</script>
</a>
</svg>