<svg id="paintbrush" xmlns="http://www.w3.org/2000/svg" xmlns:xlink="http://www.w3.org/1999/xlink" viewBox="0 0 24.27 75.49">

  <a xlink:href="../art.html" target="_top">
  <defs>
    <style>
      .cls-1 {
        fill: #fff;
      }

     .cls-2 {
        stroke: #000;
      }

      .cls-2, .cls-3 {
        stroke-miterlimit: 10;
      }

      .cls-3 {
        fill: none;
        stroke: #000;
        stroke-width: 1px;
      }

      #paintbrush #drop{
      display:none;
      -webkit-transition:all .3s ease-in-out;
transition:all .3s ease-in-out;
      }

      #paintbrush:hover #drop{
      display:initial;
      }

      #paintbrush:hover #firstink{
      -webkit-animation: drop1 3s infinite;
      animation: drop1 3s infinite;
      }

      @-webkit-keyframes drop1{
      0%{
      opacity:0;
      }
      3%{
      opacity:1;
      }
      5%{
      opacity:0;
      }
      50%{
      opacity:0;
      }
      53%{
      opacity:1;
      }
      55%{
      opacity:0;
      }
      100%{
      opacity:0;
      }
      }

      #paintbrush:hover #secondink{
      -webkit-animation: drop2 3s infinite;
      animation: drop2 3s infinite;
      }

       @-webkit-keyframes drop2{
       0%{
       opacity:0;
       }
       3%{
       opacity:0;
       }
       5%{
       opacity:1;
       }
       9%{
       opacity:1;
       }
       10%{
       opacity:0;
       }
       50%{
       opacity:0;
       }
       53%{
       opacity:0;
       }
       55%{
       opacity:1;
       }
       57%{
       opacity:1;
       }
       58%{
       opacity:0;
       }
       100%{
       opacity:0;
       }
       }

      #paintbrush:hover #thirdink{
      -webkit-animation: drop3 3s infinite;
      animation: drop3 3s infinite;
      }

       @-webkit-keyframes drop3{
       0%{
       opacity:0;
       }
       7%{
       opacity:0;
       }
       10%{
       opacity:1;
       }
       11%{
       opacity:0;
       }
       50%{
       opacity:0;
       }
       57%{
       opacity:0;
       }
       58%{
       opacity:1;
       }
       60%{
       opacity:0;
       }
       100%{
       opacity:0;
       }
       }

      #paintbrush:hover #fourthink{
      -webkit-animation: drop4 3s infinite;
      animation: drop4 3s infinite;
      }

      @-webkit-keyframes drop4{
      0%{
      opacity:0;
      }
      8%{
       opacity:0;
       }
      11%{
       opacity:1;
       }
       14%{
       opacity:0;
       }
       15%{
       opacity:0;
       }
       50%{
      opacity:0;
      }
      59%{
       opacity:0;
       }
      60%{
       opacity:1;
       }
       61%{
       opacity:0;
       }
       100%{
       opacity:0;
       }
      }

      #paintbrush:hover #fifthink{
      -webkit-animation: drop5 3s infinite;
      animation: drop5 3s infinite;
      }

      @-webkit-keyframes drop5{
      0%{
      opacity:0;
      }
      8%{
       opacity:0;
       }
      10%{
       opacity:0;
       }
       12%{
       opacity:0;
       }
       15%{
       opacity:1;
       }
       18%{
       opacity:0;
       }
        50%{
      opacity:0;
      }
      58%{
       opacity:0;
       }
      60%{
       opacity:0;
       }
       63%{
       opacity:1;
       }
       66%{
       opacity:0;
       }
       100%{
       opacity:0;
       }
      }

      #paintbrush:hover #drop ellipse{
      -webkit-animation: splat 3s infinite ease-out;
      animation: splat 3s infinite ease-out;
      transform-origin: center;
      }

      @-webkit-keyframes splat{
      0%{
      opacity:0;
      transform: scale(0);
      }
      9%{
       opacity:1;
       transform: scale(0);
       }
       20%{
       opacity:.8;
       transform: scale(.7) ease;
       }
       40%{
       opacity:0;
       transform: scale(1);
       }
        50%{
      opacity:0;
      transform: scale(0);
      }
      59%{
       opacity:1;
       transform: scale(0);
       }
       70%{
       opacity:.8;
       transform: scale(.7) ease;
       }
       90%{
       opacity:0;
       transform: scale(1);
       }
       100%{
       opacity:0;
       }
      }
    </style>
  </defs>
  <g>
   <path d="M8,23H23.58c-3.75-1.71-5.14-4.57-5.14-6.87,0-1.52.25-3.76,0.5-5.93,0.21-1.82.4-3.54,0.4-4.5C19.34,3.45,18,0,16,0a2.24,2.24,0,0,0-1.33.41c-2,1.37-1.93,5.42-1.93,5.46a22.23,22.23,0,0,0,.61,5.43,14.33,14.33,0,0,1,.4,4.87C13.43,20,10.11,22.06,8,23Z" transform="translate(-2.57 0)"/>
      <polygon points="4.74 24.14 21.51 24.14 22.48 26.18 3.63 26.18 4.74 24.14"/>
      <path d="M2.81,39.51a0.61,0.61,0,0,0-.23.61,1.09,1.09,0,0,0,1,.65c0.67,0.12,1.54.22,2.54,0.3h0c1.34,0.09,2.68-2.71,3.49-4.86a48.2,48.2,0,0,1-.9,5c0.93,0,1.92,0,2.93,0a49.79,49.79,0,0,0,10-.78,2.89,2.89,0,0,0,2.25-2,72.7,72.7,0,0,0,1.3-11.71H5.95C5.94,28.93,5.73,37.39,2.81,39.51Z" transform="translate(-2.57 0)"/>
  </g>
  <g id="drop">
         <path id="secondink" d="M8.81,39.86c-2.69,1.21,4.16,2.69,4.86,7.56,0.48,3.37.88,9.59,1.2,10.25,1.19,2.44,1.64-9.46,2.23-11.57,1.31-4.61,6.36-4,6.46-6.55C23.37,38.8,9.06,39.65,8.81,39.86Z" transform="translate(-2.57 0)"/>
      <path id="firstink" d="M14.72,44c-2.46,0-4.44-1-4.8-2.56,0.07-.73,3.7-1.28,4.71-1.29,1.48,0,6.59.46,5.93,1.29A8,8,0,0,1,14.72,44Z" transform="translate(-2.57 0)"/>
      <path id="thirdink" d="M15,38.56c-13.43.51-3,3.73-1.94,6.08,2.86,6.34.12,18.2,2.27,18.78,2.81,0.75.08-13.64,2.12-19.41C18.06,42.13,32.38,37.9,15,38.56Z" transform="translate(-2.57 0)"/>
      <g id="fourthink">
        <path d="M15,74s2.58-6.38,4.55-4.46C22.07,72,15,74,15,74Z" transform="translate(-2.57 0)"/>
        <path d="M15,74s-2.56-6.67-5.24-4.41C7.31,71.62,15,74,15,74Z" transform="translate(-2.57 0)"/>
        <path d="M15.28,65.12c-2.19,0-1.34,9-.23,8.91C16.16,74.24,17.63,65.12,15.28,65.12Z" transform="translate(-2.57 0)"/>
      </g>
      <g id="fifthink">
        <path d="M18,73.27s7.57-4.41,5.37-2.09C22.31,72.26,18,73.27,18,73.27Z" transform="translate(-2.57 0)"/>
        <path d="M10.32,72.71s-7.6-5.45-6.77-1.57C6.8,71.86,10.32,72.71,10.32,72.71Z" transform="translate(-2.57 0)"/>
    </g>
    <ellipse class="cls-3" cx="12.66" cy="74.24" rx="11.11" ry="0.75"/>
  </g>
  <path id="blotch" d="M9.61,36.21s-3.65,4.47,0,5.44c2.12,0.56,9.27,1.25,13.2-.61,0.91-.43,1.09-2.42,1.46-5a44.93,44.93,0,0,0,.26-4.79Z" transform="translate(-2.57 0)"/>
</a>
</svg>

