<?xml version="1.0" encoding="iso-8859-1"?>
<!-- Generator: Adobe Illustrator 19.1.0, SVG Export Plug-In . SVG Version: 6.00 Build 0)  -->
<svg version="1.1" id="Layer_1" xmlns="http://www.w3.org/2000/svg" xmlns:xlink="http://www.w3.org/1999/xlink" x="0px" y="0px"
	 viewBox="0 0 128 128" style="enable-background:new 0 0 128 128;" xml:space="preserve">
<g>
	<path class="logo-bg linkedin" d="M64,128c35.2,0,64-28.8,64-64S99.2,0,64,0S0,28.8,0,64S28.8,128,64,128"/>
	<path class="logo-text" d="M46.08,90.88H33.6v-40h12.48V90.88z M39.68,45.76L39.68,45.76c-4.48,0-7.68-3.2-7.68-7.04
		s2.88-7.04,7.68-7.04c4.48,0,7.36,2.88,7.36,7.04C47.04,42.88,44.16,45.76,39.68,45.76z M96,90.88H81.92v-20.8
		c0-5.44-2.24-8.96-7.04-8.96c-3.84,0-5.76,2.56-6.72,4.8c-0.32,0.96-0.32,1.92-0.32,3.2v21.44H53.76c0,0,0.32-36.48,0-40h14.08v6.4
		c0.96-2.88,5.44-6.72,12.48-6.72C89.28,50.24,96,56,96,68.48L96,90.88L96,90.88z"/>
</g>
</svg>
