<?xml version="1.0" encoding="utf-8"?>
<!-- Generator: Adobe Illustrator 19.1.0, SVG Export Plug-In . SVG Version: 6.00 Build 0)  -->
<svg version="1.1" id="Layer_1" xmlns="http://www.w3.org/2000/svg" xmlns:xlink="http://www.w3.org/1999/xlink" x="0px" y="0px"
	 viewBox="0 0 128 128" style="enable-background:new 0 0 128 128;" xml:space="preserve">
<g>
	<path class="logo-bg behance" d="M64,128c35.3,0,64-28.7,64-64c0-35.3-28.6-64-64-64C28.7,0,0,28.7,0,64C0,99.3,28.7,128,64,128"/>
	<path class="logo-text" d="M60.9,45.2c1.4,2,2.1,4.3,2.1,7.1c0,2.8-0.7,5.1-2.1,6.8c-0.8,1-2,1.8-3.5,2.6c2.4,0.9,4.1,2.2,5.3,4.1
		c1.2,1.9,1.8,4.1,1.8,6.8c0,2.7-0.7,5.2-2.1,7.4c-0.9,1.4-2,2.7-3.3,3.6c-1.5,1.1-3.2,1.9-5.2,2.3c-2,0.4-4.2,0.6-6.6,0.6H26.5
		V40.2h22.4C54.6,40.3,58.6,42,60.9,45.2z M35.8,48.3v10.2H47c2,0,3.6-0.4,4.9-1.1c1.3-0.8,1.9-2.1,1.9-4.1c0-2.2-0.8-3.6-2.5-4.3
		c-1.4-0.5-3.3-0.7-5.5-0.7L35.8,48.3C35.8,48.3,35.8,48.3,35.8,48.3z M35.8,66.2v12.4H47c2,0,3.6-0.3,4.7-0.8c2-1,3-2.9,3-5.8
		c0-2.4-1-4.1-2.9-5c-1.1-0.5-2.6-0.8-4.6-0.8L35.8,66.2L35.8,66.2z M92.5,53c2.4,1.1,4.4,2.8,5.9,5.1c1.4,2,2.3,4.4,2.7,7.1
		c0.2,1.6,0.3,3.8,0.3,6.8h-25c0.1,3.4,1.3,5.8,3.6,7.2c1.4,0.9,3,1.3,4.9,1.3c2,0,3.7-0.5,5-1.6c0.7-0.6,1.3-1.4,1.9-2.4h9.1
		c-0.2,2-1.4,4.1-3.3,6.2c-3.1,3.3-7.4,5-12.9,5c-4.6,0-8.6-1.4-12.1-4.2c-3.5-2.8-5.2-7.4-5.2-13.7c0-5.9,1.6-10.5,4.7-13.7
		c3.2-3.2,7.2-4.8,12.3-4.8C87.5,51.4,90.2,51.9,92.5,53z M79.1,60.8c-1.3,1.3-2.1,3.1-2.4,5.3h15.4c-0.2-2.4-1-4.2-2.4-5.4
		c-1.4-1.2-3.2-1.8-5.3-1.8C82.2,58.8,80.4,59.5,79.1,60.8z M94.3,42.4H74.4v5.8h19.9V42.4z"/>
</g>
</svg>
