<?xml version="1.0" encoding="iso-8859-1"?>
<!-- Generator: Adobe Illustrator 19.1.0, SVG Export Plug-In . SVG Version: 6.00 Build 0)  -->
<svg version="1.1" id="Layer_1" xmlns="http://www.w3.org/2000/svg" xmlns:xlink="http://www.w3.org/1999/xlink" x="0px" y="0px" viewBox="0 0 128 128" style="enable-background:new 0 0 128 128;" xml:space="preserve">
	<g>
		<path class="logo-bg facebook" d="M64,128.021c35.343,0,64-28.653,64-64.013C128,28.661,99.343,0,64,0S0,28.661,0,64.009
		C0,99.369,28.657,128.021,64,128.021"/>
		<path class="logo-text" d="M48.558,53.179h6.622v-6.435c0-2.837,0.073-7.211,2.129-9.925c2.168-2.863,5.15-4.813,10.271-4.813
		c8.346,0,11.862,1.191,11.862,1.191l-1.656,9.805c0,0-2.756-0.802-5.329-0.802c-2.577,0-4.881,0.926-4.881,3.495v7.48h10.552
		l-0.738,9.571h-9.814v33.265h-12.4V62.746h-6.622v-9.567H48.558z"/>
	</g>
</svg>
