<?xml version="1.0" encoding="iso-8859-1"?>
<!-- Generator: Adobe Illustrator 19.1.0, SVG Export Plug-In . SVG Version: 6.00 Build 0)  -->
<svg version="1.1" id="Layer_1" xmlns="http://www.w3.org/2000/svg" xmlns:xlink="http://www.w3.org/1999/xlink" x="0px" y="0px"
	 viewBox="0 0 128 128" style="enable-background:new 0 0 128 128;" xml:space="preserve">
<path style="fill:#4B4B4B;" d="M63.994,128c35.337,0,63.989-28.648,63.989-63.998C127.983,28.656,99.331,0,63.994,0
	C28.652,0,0,28.656,0,64.002C0.004,99.352,28.652,128,63.994,128"/>
<path style="fill:#6F6F6E;" d="M48.554,53.166h6.617v-6.429c0-2.837,0.073-7.21,2.133-9.923c2.167-2.867,5.149-4.812,10.269-4.812
	c8.345,0,11.86,1.19,11.86,1.19l-1.655,9.804c0,0-2.756-0.802-5.329-0.802c-2.577,0-4.881,0.926-4.881,3.494v7.474h10.55
	l-0.738,9.569h-9.812v33.264H55.167V62.731H48.55v-9.565H48.554z"/>
</svg>
