<?xml version="1.0" encoding="iso-8859-1"?>
<!-- Generator: Adobe Illustrator 19.2.0, SVG Export Plug-In . SVG Version: 6.00 Build 0)  -->
<svg version="1.1" id="Layer_1" xmlns="http://www.w3.org/2000/svg" xmlns:xlink="http://www.w3.org/1999/xlink" x="0px" y="0px"
	 viewBox="0 0 517.558 680.998" style="enable-background:new 0 0 517.558 680.998;" xml:space="preserve">
<style type="text/css">
	.st0{fill:#333333;}
</style>
<g>
	<path class="st0" d="M412.433,70.993c1.758-2.923,2.595-5.892,2.961-8.984c0.531-4.483-0.284-8.761-2.29-12.808
		c-0.355-0.717-0.763-1.411-1.07-2.147c-0.858-2.052,0.001-3.382,2.254-3.184c3.324,0.293,6.37,1.416,8.965,3.626
		c4.563,3.887,6.081,8.866,5.248,14.651c-0.655,4.554-1.997,8.885-4.529,12.791c-0.456,0.704-1.225,1.463-0.555,2.378
		c0.689,0.941,1.713,0.585,2.658,0.44c2.208-0.338,4.413-0.672,6.656-0.742c7.771-0.242,14.839,1.806,21.222,6.28
		c3.995,2.8,8.064,5.493,12.099,8.236c1.522,1.035,3.082,2.005,4.722,2.847c4.559,2.343,9.342,3.154,14.387,2.111
		c1.676-0.346,3.313-0.312,4.987,0.044c5.26,1.117,8.494,6.183,7.23,11.407c-0.567,2.342-1.615,3.263-4.009,3.327
		c-2.798,0.075-5.598,0.062-8.398,0.082c-0.56,0.004-1.125-0.067-1.678-0.009c-1.685,0.176-2.123,0.894-1.376,2.405
		c0.636,1.287,1.413,2.506,2.127,3.755c1.826,3.192,3.657,6.382,5.478,9.577c1.349,2.368,1.99,2.574,4.344,1.137
		c1.567-0.956,3.054-2.043,4.581-3.066c0.664-0.445,1.318-0.919,2.123-1.082c1.569-0.317,2.456,0.283,2.761,1.851
		c0.859,4.423-2.111,10.302-6.213,12.192c-3.561,1.641-7.198,3.06-11.032,3.982c-3.806,0.916-7.104,0.006-10.106-2.354
		c-0.249-0.196-0.508-0.378-0.986-0.435c0.28,0.383,0.538,0.784,0.842,1.146c3.909,4.669,7.37,9.664,10.703,14.75
		c1.646,2.512,2.101,5.265,1.8,8.242c-0.594,5.885-1.145,11.76,0.48,17.618c1.618,5.835,4.711,10.809,8.441,15.462
		c0.25,0.312,0.551,0.589,0.764,0.923c0.332,0.519,1.042,0.963,0.772,1.654c-0.331,0.846-1.215,0.921-2.009,1.029
		c-1.662,0.227-3.203-0.174-4.574-1.077c-2.136-1.406-4.224-2.887-6.319-4.353c-4.193-2.935-8.453-5.762-13.142-8.436
		c0.165,0.818,0.687,1.033,1.07,1.35c7.01,5.791,13.281,12.244,17.951,20.121c3.055,5.151,5.062,10.674,5.868,16.623
		c0.406,3.001-0.115,5.882-0.957,8.752c-1.283,4.373-2.402,8.774-2.954,13.326c-0.618,5.097-0.192,10.044,1.317,14.925
		c0.248,0.802,0.887,1.669-0.237,2.311c-0.851,0.486-1.991,0.151-2.756-0.803c-0.718-0.896-0.972-2.005-1.299-3.074
		c-0.771-2.521-1.28-5.109-2.188-7.601c-1.934-5.309-5.469-8.692-11.05-9.943c-1.196-0.268-2.184-0.194-3.194,0.412
		c-1.044,0.626-1.889,1.454-2.65,2.401c-3.261,4.052-5.225,8.774-7.023,13.577c-0.982,2.623-1.822,5.3-2.325,8.059
		c-0.755,4.142,0.779,5.536,4.898,4.51c0.695-0.173,1.35-0.499,2.038-0.704c1.274-0.38,1.942,0.102,1.428,1.191
		c-1.659,3.515-3.122,7.223-7.544,8.354c-3.36,0.859-4.458,3.717-2.631,6.718c1.602,2.631,3.933,4.609,6.392,6.423
		c3.883,2.864,7.438,6.062,10.266,10.005c2.711,3.781,4.925,7.86,7.059,11.978c3.054,5.893,5.955,11.864,8.673,17.921
		c0.654,1.458,1.263,2.934,1.621,4.506c1.349,5.927-0.772,10.578-6.139,13.447c-3.984,2.13-8.331,3.244-12.607,4.562
		c-0.306,0.094-0.615,0.177-0.922,0.267c-4.908,1.429-7.61,5.21-7.428,10.338c0.059,1.669,0.621,3.128,1.65,4.412
		c0.549,0.685,1.126,1.355,1.747,1.976c2.888,2.888,4.074,6.346,3.954,10.431c-0.082,2.809-1.245,4.724-3.642,5.986
		c-1.469,0.774-2.972,1.484-4.533,2.259c0.604,0.751,1.424,0.926,2.079,1.34c4.321,2.734,6.5,7.66,5.332,12.623
		c-0.804,3.417-2.438,6.415-5.292,8.621c-0.696,0.538-1.398,1.072-2.05,1.66c-2.52,2.273-3.207,4.85-1.971,8.009
		c1.934,4.944,3.246,10.042,3.957,15.292c0.495,3.658,0.625,7.344-0.107,10.984c-1.673,8.324-6.766,13.569-14.798,16.012
		c-2.599,0.791-5.289,1.088-8.022,1.275c-10.868,0.744-21.743,0.12-32.61,0.37c-2.886,0.067-5.739-0.277-8.609-0.41
		c-5.84-0.271-11.665,0.267-17.482,0.563c-5.489,0.279-10.977,0.89-16.411,1.838c-2.652,0.463-5.052,1.574-7.259,3.029
		c-8.849,5.831-15.768,13.477-20.913,22.716c-1.329,2.387-1.953,5.069-2.544,7.726c-2.069,9.304-3.247,18.735-3.997,28.228
		c-0.805,10.193-1.663,20.383-2.445,30.578c-0.52,6.769-0.881,13.55-1.437,20.316c-0.432,5.254-1.052,10.492-1.593,15.737
		c-0.453,4.388-0.31,8.784-0.221,13.181c0.03,1.489,0.838,2.282,2.085,2.914c4.635,2.351,9.234,4.773,13.857,7.147
		c6.828,3.507,13.663,7.002,20.502,10.487c1.805,0.92,3.331,2.057,4.469,3.834c5.909,9.225,11.912,18.39,17.874,27.581
		c2.916,4.495,5.816,9,8.714,13.506c0.329,0.512,0.858,0.978,0.564,1.81c-3.435,0.184-6.815-0.459-10.214-0.717
		c-4.056-0.307-8.097-0.805-12.146-1.206c-6.273-0.621-12.546-1.242-18.822-1.841c-3.973-0.38-7.952-0.702-11.924-1.087
		c-5.956-0.577-11.908-1.199-17.865-1.776c-3.972-0.385-7.951-0.705-11.923-1.086c-6.037-0.579-12.069-1.196-18.106-1.777
		c-4.052-0.39-8.109-0.734-12.161-1.122c-6.036-0.578-12.07-1.181-18.106-1.766c-3.734-0.362-7.469-0.704-11.203-1.067
		c-6.274-0.609-12.547-1.237-18.822-1.837c-3.893-0.372-7.792-0.69-11.685-1.064c-6.116-0.587-12.229-1.209-18.344-1.801
		c-3.813-0.369-7.631-0.697-11.444-1.067c-6.195-0.602-12.386-1.24-18.581-1.831c-4.132-0.394-8.272-0.709-12.404-1.104
		c-5.798-0.554-11.583-1.41-17.392-1.638c-4.127-0.162-7.565-1.657-10.949-3.698c-1.984-1.197-4.058-2.244-6.067-3.401
		c-2.116-1.219-2.101-1.239-0.897-3.25c2.877-4.801,5.797-9.578,8.617-14.412c5.763-9.876,11.347-19.85,16.677-29.971
		c6.115-11.611,11.887-23.377,16.939-35.489c2.989-7.166,5.61-14.461,7.467-22.013c0.67-2.726,1.781-3.395,4.517-2.725
		c1.707,0.418,1.751,0.429,2.195-1.415c1.611-6.689,2.868-13.446,3.748-20.272c0.684-5.311,1.282-10.629,1.672-15.973
		c0.074-1.014-0.085-1.623-0.948-2.188c-5.66-3.699-8.349-9.311-9.783-15.637c-1.053-4.642-0.405-9.221,0.977-13.722
		c0.278-0.904,0.77-1.758,0.726-2.722c-0.457-0.556-0.918-0.217-1.32-0.033c-4.197,1.925-8.645,2.845-13.21,3.18
		c-1.825,0.134-3.67-0.207-5.435-0.713c-4.365-1.251-6.032-4.78-4.256-8.988c1.064-2.521,2.546-4.808,4.293-6.907
		c3.382-4.063,7.132-7.776,10.964-11.411c1.45-1.376,2.851-2.805,4.261-4.222c0.263-0.264,0.629-0.513,0.418-1.143
		c-1.193,0.135-2.166,0.873-3.221,1.343c-3.442,1.534-6.685,3.43-9.788,5.567c-1.058,0.729-2.025,1.564-2.905,2.499
		c-0.613,0.651-1.21,1.297-0.838,2.32c0.36,0.99-0.342,1.099-1.019,1.082c-6.874-0.18-13.577-0.802-18.919-5.97
		c-4.275-4.136-6.518-9.176-7.371-14.974c-0.843-5.73-0.156-11.312,1.361-16.839c0.106-0.386,0.237-0.764,0.338-1.151
		c0.263-1.011-0.289-1.408-1.153-1.234c-1.654,0.334-3.331,0.37-4.995,0.559c-6.374,0.721-12.587,0.024-18.632-2.126
		c-1.371-0.488-2.597-1.239-3.641-2.263c-1.703-1.669-2.042-3.254-1.018-5.434c0.99-2.106,2.365-3.987,3.716-5.871
		c4.217-5.878,9.226-11.028,14.613-15.829c0.111-0.099,0.166-0.261,0.418-0.673c-1.043,0.366-1.665,0.924-2.306,1.431
		c-4.336,3.431-8.32,7.229-11.958,11.397c-1.803,2.066-2.228,2.046-4.265,0.264c-2.168-1.897-3.554-4.298-4.568-6.944
		c-1.732-4.52-2.502-9.241-2.971-14.035c-0.561-5.737-0.547-11.484-0.647-17.325c-0.343,0.83-0.708,1.652-1.024,2.491
		C92.971,366.17,83.258,372,72.979,372.014c-2.325,0.003-4.638,0.009-6.889-0.696c-1.154-0.362-2.264-0.799-3.185-1.612
		c-1.589-1.404-1.604-3.085-0.026-4.524c0.294-0.268,0.631-0.493,0.968-0.707c1.914-1.216,3.087-2.969,3.765-5.101
		c1.599-5.026,1.957-10.211,1.654-15.414c-0.288-4.939-0.678-9.878-1.292-14.799c-0.326-2.613-1.922-4.344-3.496-6.116
		c-0.818-0.921-1.875-0.665-2.874,0.495c-2.483,2.883-3.856,6.245-4.073,10.04c-0.105,1.833-0.08,3.67,0.156,5.508
		c0.334,2.609-1.469,4.124-3.999,3.302c-2.588-0.84-4.293-2.783-5.38-5.17c-1.656-3.637-2.204-7.499-1.746-11.479
		c0.357-3.098,0.912-6.165,1.517-9.225c0.692-3.501,0.139-4.25-3.498-4.461c-1.92-0.112-3.832-0.149-5.69-0.711
		c-2.863-0.866-3.569-2.482-1.685-4.779c3.166-3.859,4.231-8.42,4.666-13.135c0.493-5.333,0.338-10.695-0.182-16.043
		c-0.303-3.121-1.883-5.33-4.341-7.11c-5.635-4.083-10.299-9.088-13.952-15.015c-4.312-6.996-6.783-14.545-7.42-22.796
		c-0.478-6.188,0.764-12.072,2.074-17.996c0.295-1.334,0.967-2.388,2.469-2.583c1.508-0.197,2.315,0.747,3.073,1.862
		c3.323,4.882,7.318,9.088,12.474,12.071c4.091,2.367,8.5,3.079,13.158,2.344c0.844-0.133,1.562-0.426,1.809-1.323
		c0.259-0.943-0.343-1.47-1.009-1.979c-8.116-6.188-14.654-13.776-19.85-22.53c-3.889-6.553-5.993-13.581-5.352-21.281
		c0.24-2.882,0.862-5.689,1.812-8.421c0.157-0.451,0.336-0.904,0.571-1.318c1.55-2.726,4.531-2.827,6.048-0.096
		c2.356,4.241,5.363,7.927,8.836,11.289c3.307,3.202,7.308,5.11,11.579,6.575c0.299,0.103,0.621,0.167,0.937,0.19
		c1.365,0.099,2.772,0.258,3.723-1.05c0.929-1.278,0.554-2.575-0.042-3.856c-4.482-9.627-7.436-19.73-9.282-30.163
		c-0.755-4.268-0.934-8.573-0.203-12.883c0.595-3.511,2.069-6.503,4.804-8.875c2.918-2.53,5.538-2.349,7.623,0.894
		c2.626,4.084,6.232,6.648,11.005,7.341c3.005,0.436,6.086,0.424,9.094-0.029c4.125-0.622,8.049-2.038,11.931-3.538
		c0.224-0.086,0.454-0.163,0.664-0.276c1.614-0.868,1.71-1.778,0.3-2.874c-0.252-0.196-0.54-0.343-0.804-0.523
		c-2.384-1.634-4.941-2.96-7.563-4.154c-4.066-1.851-8.304-2.158-12.659-1.286c-1.152,0.231-2.435,0.77-3.327-0.447
		c-1-1.364-0.525-2.766,0.306-4.022c1.898-2.87,4.45-5.022,7.558-6.47c7.081-3.298,14.542-5.322,22.243-6.516
		c1.105-0.171,2.218-0.31,3.308-0.554c4.1-0.919,6.918-4.427,6.949-8.643c0.011-1.519-0.063-3.038-0.087-4.557
		c-0.021-1.306,0.308-2.543,0.871-3.706c1.311-2.71,3.54-3.475,6.12-1.925c1.61,0.967,3.258,1.644,5.106,1.933
		c2.764,0.433,4.344-0.658,4.683-3.409c0.216-1.755,0.029-3.506-0.203-5.256c-0.659-4.959-0.111-9.737,2.299-14.202
		c1.181-2.188,2.949-3.781,5.187-4.809c2.278-1.046,3.704-0.381,4.399,1.984c0.225,0.764,0.37,1.558,0.476,2.349
		c0.839,6.215,4.787,8.712,10.064,9.58c3.649,0.6,6.426-0.62,8.283-3.862c1.629-2.844,3.212-5.718,4.938-8.503
		c4.434-7.154,9.838-13.394,17.124-17.823c5.446-3.311,11.351-5.123,17.712-5.294c3.03-0.081,6.069-0.153,9.103,0.242
		c2.292,0.299,4.18-0.839,5.184-3.086c1.443-3.23,1.498-6.501-0.146-9.714c-0.399-0.781-0.918-1.522-1.182-2.346
		c-0.501-1.565,0.092-2.741,1.66-3.168c1.21-0.33,2.432-0.531,3.767-0.351c10.385,1.397,19.864,5.356,29.083,10.087
		c1.494,0.767,3.008,1.496,4.48,2.303c4.347,2.385,8.644,2.345,13.049,0.057c5.534-2.875,11.124-5.645,16.729-8.382
		c7.04-3.438,14.102-6.834,21.189-10.174c4.212-1.986,8.7-2.679,13.324-2.24c1.543,0.147,3.395,0.155,4.092,1.948
		c0.653,1.679-0.59,2.849-1.582,3.999c-4.771,5.527-6.692,12.078-6.936,19.235c-0.06,1.755,0.149,3.523-0.261,5.261
		c-0.036,0.153-0.034,0.319-0.03,0.478c0.02,0.865,0.332,1.609,1.168,1.924c0.799,0.301,1.376-0.229,1.856-0.791
		c1.349-1.581,2.646-3.207,4.021-4.764c4.664-5.28,9.459-10.421,15.52-14.175c0.816-0.505,1.61-1.02,2.544-1.318
		c1.357-0.432,2.573-0.209,3.529,0.793c0.889,0.932,0.623,2.077,0.21,3.158c-0.199,0.522-0.454,1.023-0.688,1.531
		c-0.486,1.051-0.557,2.16-0.437,3.288c0.097,0.915,0.398,1.761,1.333,2.112c0.932,0.35,1.459-0.386,2.034-0.929
		c2.266-2.141,4.51-4.304,6.806-6.413c3.638-3.343,7.724-5.977,12.502-7.355c7.602-2.192,14.541-0.88,20.72,4.155
		c3.649,2.973,6.3,6.778,8.919,10.612c0.225,0.33,0.386,0.707,0.631,1.019c0.834,1.064,1.655,0.985,2.043-0.349
		c0.553-1.904,1.067-3.842,0.741-5.885c-0.34-2.131-0.579-4.278-0.908-6.41c-0.189-1.227-0.383-2.427,0.957-3.158
		c1.305-0.712,2.481-0.308,3.566,0.517c2.73,2.075,4.745,4.751,6.268,7.782c2.999,5.968,4.86,12.337,6.401,18.806
		c1.353,5.682,2.23,11.456,3.297,17.193C411.845,69.795,411.817,70.291,412.433,70.993z"/>
</g>
</svg>
