<?xml version="1.0" encoding="iso-8859-1"?>
<!-- Generator: Adobe Illustrator 19.1.0, SVG Export Plug-In . SVG Version: 6.00 Build 0)  -->
<svg version="1.1" id="Layer_1" xmlns="http://www.w3.org/2000/svg" xmlns:xlink="http://www.w3.org/1999/xlink" x="0px" y="0px"
	 viewBox="0 0 128 128" style="enable-background:new 0 0 128 128;" xml:space="preserve">
<path style="fill:#4B4B4B;" d="M64.035,128.082c35.368,0,64.03-28.675,64.03-64.039C128.065,28.675,99.403,0,64.035,0
	C28.67,0,0,28.675,0,64.043C0.004,99.407,28.67,128.082,64.035,128.082"/>
<path style="fill:#6F6F6E;" d="M46.118,90.822H33.635V50.878h12.482V90.822z M39.561,45.883h-0.094
	c-4.521,0-7.445-3.057-7.445-6.924c0-3.949,3.014-6.937,7.624-6.937c4.602,0,7.432,2.984,7.522,6.924
	C47.168,42.818,44.248,45.883,39.561,45.883z M96.052,90.822H81.896v-20.67c0-5.413-2.211-9.106-7.078-9.106
	c-3.718,0-5.789,2.493-6.758,4.892c-0.359,0.858-0.303,2.058-0.303,3.27v21.61H53.738c0,0,0.184-36.615,0-39.945h14.019v6.271
	c0.828-2.745,5.311-6.655,12.453-6.655c8.871,0,15.842,5.746,15.842,18.118C96.052,68.607,96.052,90.822,96.052,90.822z"/>
</svg>
